<?xml version="1.0" encoding="UTF-8"?>
<svg id="Layer_1" data-name="Layer 1" xmlns="http://www.w3.org/2000/svg" viewBox="0 0 512 512">
  <defs>
    <style>
      .cls-1 {
        fill: #702323;
      }

      .cls-1, .cls-2 {
        stroke-width: 0px;
      }

      .cls-2 {
        fill: #df9b42;
      }
    </style>
  </defs>
  <path class="cls-2" d="M512,255.8c-.11,140.74-113.3,255.87-255.54,256.2C115.7,512.33.78,399.12,0,257.34-.77,115.76,113.19.36,255.48,0c140.69-.36,256.03,113.14,256.52,255.8ZM304.36,248.1v-127.55c-.39.6-.52.73-.57.89-8.9,33.06-21.76,64.52-38.48,94.41-6.15,11-12.99,21.57-19.83,32.15-5.84,0-11.68-.01-17.52-.02,5.89-8.39,11.68-16.85,17.01-25.62,37.59-61.75,56.96-128.82,58.78-201.01.05-2.13-.17-3.37-2.72-3.81-11.33-1.96-22.73-3.41-34.21-3.86-18.4-.73-36.71.39-54.85,3.78-45.19,8.45-84.92,28.01-118.88,58.9-37.05,33.7-61.43,75.04-73.17,123.74-3.76,15.59-5.83,31.42-6.3,47.45-.01,4.52-.03,9.04-.04,13.56-.07,10.08.91,20.1,2.37,30.05,4.5,30.75,14.55,59.6,30.16,86.49,1.59,2.74,2.89,5.7,5.23,7.97,2.2,4.24,4.87,8.16,7.94,11.82.09,1.01.82,1.68,1.38,2.42,18.03,24.19,39.57,44.65,65.09,60.8,39.66,25.1,82.98,37.73,129.96,37.88,10.29.03,20.53-.57,30.72-1.86,6.03-.77,12.13-1.32,17.96-3.22,4.63-.48,9.03-2.01,13.56-2.93,15.19-3.87,29.83-9.26,43.84-16.24,56.07-27.91,96.03-70.84,119.61-128.83,10.84-26.66,16.31-54.49,16.95-83.27-.01-4.5-.02-9.01-.03-13.51-.24-13.77-1.79-27.42-4.62-40.88-12.05-57.22-40.86-104.33-86.29-141.18-25.72-20.86-54.75-35.43-86.61-44.44-2.28-.64-3.04-.48-2.94,2.17.21,5.74.07,11.49.07,17.23,0,68.85-.02,137.7-.03,206.56-4.51,0-9.02-.02-13.54-.03Z"/>
  <path class="cls-1" d="M51.34,385.6c58.95-23.52,109.39-59.14,151.63-106.42,4.95-5.54,9.77-11.18,14.88-17.77-68.51-.1-136.39-.21-204.26-.31.01-4.52.03-9.04.04-13.56,70.88.18,141.76.35,212.64.52.56,0,1.13-.06,1.69-.1,5.84,0,11.68.01,17.52.02,14.94.08,29.87.17,44.81.22,4.69.02,9.38-.07,14.07-.11,4.51,0,9.02.02,13.54.03,6.21.09,12.42.26,18.63.27,53.93.1,107.86.18,161.79.26,0,4.5.02,9.01.03,13.51-59.09-.15-118.17-.29-177.26-.51-2.54,0-3.23.57-3.23,3.18.08,74.38.06,148.75.06,223.13,0,.85.02,1.69.03,2.54-4.53.92-8.94,2.45-13.56,2.93-.02-7.91-.05-15.82-.05-23.73,0-68.27-.01-136.54.05-204.8,0-2.42-.4-3.3-3.12-3.28-20.83.1-41.66.05-62.49-.09-2.54-.02-4.06.81-5.57,2.78-46.02,59.95-103.91,104.44-173.93,133.1-3.06-3.66-5.74-7.58-7.94-11.82Z"/>
</svg>