<svg width="130" height="130" viewBox="0 0 130 130" fill="none" xmlns="http://www.w3.org/2000/svg">
<g clip-path="url(#clip0_3014_20928)">
<path d="M89.9895 36.1111C89.9895 38.2598 89.4839 40.282 88.5811 42.0695C81.702 39.325 75.2561 43.3514 75.2561 43.3514C74.9853 42.9361 74.4256 42.1417 74.1547 41.7445C71.5367 38.0611 67.6728 35.6778 63.502 34.6486C64.2242 27.9861 69.8575 22.8042 76.7006 22.8042C84.0492 22.8223 89.9895 28.7806 89.9895 36.1111Z" fill="#C4161C"/>
<path d="M79.7878 21.143C78.8308 20.9443 77.8378 20.8541 76.8086 20.836C76.8808 20.4749 79.4989 9.08185 79.535 8.7749L79.7878 21.143Z" fill="#C4161C"/>
<path d="M83.9577 17.6221L82.8382 22.0818C82.4952 21.9373 82.1521 21.7929 81.791 21.6846C81.791 21.6846 83.9216 17.7304 83.9577 17.6221Z" fill="#C4161C"/>
<path d="M91.3254 22.4609C91.2532 22.5332 87.6602 25.2415 87.6602 25.2415L88.4365 26.0359L91.3254 22.4609Z" fill="#C4161C"/>
<path d="M96.3625 31.3623L92.1014 33.0956V33.0776C92.0111 32.7165 91.9208 32.3734 91.8125 32.0304C91.9931 31.9942 96.2542 31.3984 96.3625 31.3623Z" fill="#C4161C"/>
<path d="M96.5066 41.1846L91.9746 40.7332C92.0649 40.3721 92.1552 40.011 92.2274 39.6499C92.4441 39.7221 96.1816 41.0763 96.5066 41.1846Z" fill="#C4161C"/>
<path d="M92.3911 13.4512L86.7217 24.429C85.9633 23.797 85.1147 23.2373 84.248 22.7498C84.5369 22.4248 92.2286 13.7039 92.3911 13.4512Z" fill="#C4161C"/>
<path d="M101.058 22.8223L91.109 30.1709C90.6937 29.2681 90.2062 28.4014 89.6465 27.5889V27.5709C89.6465 27.5709 100.805 22.9667 101.058 22.8223Z" fill="#C4161C"/>
<path d="M92.4628 37.6999C92.4809 37.3388 92.499 36.9957 92.499 36.6346C92.499 35.9846 92.4628 35.3346 92.3906 34.7207C92.842 34.7568 104.343 35.8943 104.686 35.8943L92.4628 37.6999Z" fill="#C4161C"/>
<path d="M62.1296 30.514L62.0935 30.6043L62.0755 30.6404L61.7866 31.4168L61.7324 31.5612C61.7324 31.5612 57.7783 29.4487 57.6699 29.4126L62.1296 30.514Z" fill="#C4161C"/>
<path d="M75.0931 20.9265C74.7139 20.9626 74.3528 21.0168 73.9917 21.071C73.9917 21.071 73.9556 16.5932 73.9375 16.4668L75.0931 20.9265Z" fill="#C4161C"/>
<path d="M67.6363 23.6889L67.5821 23.725L66.896 24.2306L66.7516 24.3389C66.7516 24.3389 64.6752 20.6917 64.4766 20.3667L67.6363 23.6889Z" fill="#C4161C"/>
<path d="M64.8744 26.1443C64.2063 26.8846 63.6286 27.6971 63.1049 28.5457C62.7438 28.2027 54.5827 20.5291 54.1133 20.1318L64.8744 26.1443Z" fill="#C4161C"/>
<path d="M72.2944 21.4681C71.3194 21.7389 70.3985 22.1181 69.5138 22.5695C69.5138 22.5695 66.661 11.2306 66.4805 10.5986L72.2944 21.4681Z" fill="#C4161C"/>
<path d="M65 130C29.1597 130 0 100.84 0 65C0 29.1597 29.1597 0 65 0C100.84 0 130 29.1597 130 65C130 100.84 100.84 130 65 130ZM65 2.69028C30.6403 2.69028 2.69028 30.6403 2.69028 65C2.69028 99.3597 30.6403 127.31 65 127.31C99.3597 127.31 127.31 99.3597 127.31 65C127.31 30.6403 99.3597 2.69028 65 2.69028Z" fill="#0066B3"/>
<path d="M12.9268 96.4345C12.5838 96.3081 20.4199 98.222 33.5824 90.9998C38.7102 88.1831 44.4699 86.4317 50.3741 86.9373C55.0866 87.3345 58.4268 88.6164 62.4893 90.9637C67.1838 93.6539 73.5935 99.0706 78.8477 100.587C90.331 103.909 99.7921 98.7998 101.453 98.1498C104.541 96.9581 109.831 94.6651 115.591 95.7664C115.591 95.7664 109.849 96.1095 101.309 100.118C96.181 102.519 92.7866 103.693 88.8866 104.09C82.7296 104.704 79.5338 103.891 72.7088 101.382C67.3463 99.3956 61.9296 97.247 56.2602 96.3262C51.9268 95.64 47.4491 95.8387 43.1879 96.922C38.7643 98.0595 34.4671 99.7928 29.8268 99.7748C25.9449 99.7748 22.1532 99.0345 18.4157 98.0956C16.5199 97.6442 14.7143 97.0484 12.9268 96.4345Z" fill="#0066B3"/>
<path d="M60.1973 86.4502C60.1973 86.4502 63.6459 85.7821 71.3917 89.3391C80.2931 93.4196 84.6806 92.553 93.4195 88.7613C102.935 84.6085 113.75 87.9669 119.618 91.1627C119.618 91.1627 109.561 88.7252 100.804 93.0224C96.9764 94.9002 89.8084 100.714 79.1737 96.8502C74.8042 95.2613 71.6084 92.3363 69.4959 90.8738C65.1084 87.8044 62.5987 86.9558 60.1973 86.4502Z" fill="#0066B3"/>
<path d="M31.5977 103.35C32.7352 103.278 33.4754 103.025 33.8004 102.935C34.1435 102.844 35.1185 102.429 35.4615 102.267C36.1296 101.942 36.7977 101.635 37.4838 101.364C38.1338 101.111 38.7838 100.858 39.4518 100.66C40.0657 100.461 40.6977 100.281 41.3296 100.118C41.9254 99.9736 42.5213 99.8291 43.1171 99.7208C43.6768 99.6125 44.2185 99.5222 44.7782 99.4319C45.2838 99.3597 45.7893 99.3055 46.2949 99.2513H46.3129C50.8629 98.8 55.3949 99.1972 59.8365 100.154C63.899 101.039 66.7338 102.303 70.6338 103.747C73.4865 104.794 76.1768 106.347 79.1018 107.232C84.9338 109.019 90.9282 107.719 96.5977 105.932C99.0352 105.174 101.653 104.09 104.073 103.151C106.456 102.231 109.905 100.822 112.45 101.328C109.02 101.508 104.362 104.903 91.9935 110.121C88.2199 111.71 83.5977 112.594 79.5171 112.775C72.674 113.082 66.3727 111.71 60.0352 108.929C56.5143 107.376 53.0657 105.715 49.3102 104.758C44.5074 103.531 39.181 103.386 34.1435 103.729C33.4935 103.747 32.2477 103.711 31.5977 103.35Z" fill="#0066B3"/>
<path d="M68.1768 59.439C60.8824 59.8904 53.606 60.1973 46.3115 60.4321L40.8407 60.6126L35.3699 60.739L33.9977 60.7751C33.5282 60.7751 33.1671 60.8293 32.4629 60.7751C31.2352 60.6668 30.0074 60.1793 29.0504 59.3126C28.8157 59.0959 28.581 58.8612 28.4004 58.6084C28.2199 58.3737 28.0754 58.1571 27.9129 57.9223C27.7685 57.6876 27.6241 57.4529 27.4977 57.2001C27.3713 56.9473 27.2449 56.6946 27.1366 56.4418C26.7032 55.4126 26.4504 54.3112 26.3963 53.2098C26.3421 52.1084 26.4504 51.0071 26.7393 49.9418C27.0282 48.8404 27.5157 47.8473 28.1477 46.9265C28.7796 46.0057 29.6102 45.2112 30.531 44.5973C31.4518 43.9834 32.481 43.5501 33.5102 43.2793C35.5865 42.7376 37.699 42.864 39.649 43.3334C40.1365 43.4418 40.624 43.6043 41.0935 43.7668C41.3282 43.8571 41.5629 43.9473 41.7977 44.0376C42.0324 44.1279 42.2852 44.2362 42.5018 44.3626C42.7185 44.4709 42.9352 44.5973 43.1518 44.7057L43.1879 44.7237C43.2782 44.7598 43.0615 44.6515 42.8449 44.6334C42.4115 44.5793 41.9782 44.8501 41.8338 45.1571C41.7254 45.3918 41.8157 45.2112 41.7977 45.2473L41.8157 45.2112L41.8518 45.139L42.0143 44.814C42.1768 44.3626 42.3574 43.9112 42.5379 43.4598C43.2782 41.6723 44.2352 39.939 45.481 38.3682C46.7268 36.8154 48.2796 35.4432 50.0671 34.4682C50.9518 33.9626 51.8727 33.5834 52.8296 33.2404C53.7865 32.9154 54.7435 32.6265 55.7365 32.4459C57.7227 32.0848 59.7629 32.0487 61.749 32.3376C63.7352 32.6265 65.6671 33.2584 67.4185 34.1612C69.1879 35.064 70.7768 36.2557 72.1671 37.6098C72.8532 38.2959 73.5032 39.0182 74.099 39.7765L74.5324 40.3543L74.9477 40.9501C75.2365 41.3654 75.4532 41.7626 75.6879 42.1418C75.7963 42.3223 75.9227 42.5029 76.0129 42.6654C76.0671 42.7376 75.9046 42.5029 75.724 42.4307C75.5254 42.3223 75.3088 42.3043 75.1463 42.3404C75.1463 42.3404 75.0379 42.3584 75.0379 42.3765C75.056 42.3765 75.0921 42.3584 75.1463 42.3404L75.4532 42.214C75.8685 42.0334 76.3199 41.8709 76.7532 41.6543C77.6199 41.2571 78.5227 40.914 79.4435 40.6251C81.2852 40.0654 83.2713 39.7584 85.2754 39.8668C87.2796 39.9751 89.2838 40.5709 91.0352 41.564C91.5227 41.8348 91.956 42.1418 92.3532 42.4487C92.7685 42.7557 93.1477 43.0987 93.4907 43.4598C94.2129 44.1821 94.8268 45.0126 95.3143 45.9515C95.7838 46.8723 96.1088 47.9015 96.2532 48.9307C96.3254 49.4543 96.3435 49.9598 96.3254 50.4834C96.3074 50.7362 96.2893 50.989 96.2713 51.2418L96.2532 51.4223V51.4765C96.2171 51.314 96.3254 51.9279 96.1629 51.0973C95.224 50.2668 95.1518 50.8446 95.2963 50.664H95.3504C95.4768 50.6459 95.6032 50.6279 95.7296 50.6279C96.2352 50.6098 96.7227 50.5737 97.2282 50.5737C97.7338 50.5918 98.2393 50.6459 98.7268 50.7543C99.2324 50.8626 99.7379 51.0612 100.189 51.2779C100.641 51.5126 101.074 51.7834 101.471 52.1084C102.266 52.7584 102.916 53.5529 103.367 54.4918C103.8 55.4126 104.089 56.4598 103.891 57.6154C103.692 58.8251 102.609 59.8362 101.363 59.9084C101.291 59.9084 101.218 59.9084 101.128 59.9265H100.948H100.605L99.9185 59.9084L98.5463 59.8904L93.0754 59.8182L82.1518 59.6557L71.2282 59.4571C71.1018 59.4571 71.0115 59.3487 71.0115 59.2223C71.0115 59.0959 71.1199 59.0057 71.2282 59.0057L82.1518 58.8071L93.0754 58.6446L98.5463 58.5723L99.9185 58.5543L100.605 58.5362H100.948H101.11C101.146 58.5362 101.182 58.5362 101.218 58.5362C101.814 58.4821 102.338 57.9765 102.41 57.3626C102.518 56.6946 102.32 55.8821 101.941 55.1959C101.58 54.4918 101.056 53.8598 100.424 53.3543C100.117 53.1015 99.774 52.8668 99.4129 52.6862C99.0699 52.5057 98.7088 52.3612 98.3296 52.2529C97.9504 52.1446 97.5352 52.0904 97.1379 52.0723C96.8852 52.0543 96.6143 52.0723 96.3615 52.1084C96.1088 52.1446 95.874 52.2348 95.6213 52.2529C94.9532 52.3251 94.556 51.8376 94.5379 51.2057C94.5379 50.989 94.5018 50.7723 94.4657 50.5737C94.3935 50.1765 94.3032 49.7793 94.1588 49.4182C93.8699 48.6779 93.4727 47.9918 92.9852 47.3779C92.5157 46.7459 91.956 46.1862 91.3782 45.6265C90.8004 45.1029 90.1324 44.5432 89.5185 44.2182C88.1102 43.3876 86.5754 42.8459 84.9504 42.5932C83.3254 42.3404 81.6282 42.3946 79.949 42.7557C79.1185 42.9362 78.2699 43.1709 77.4574 43.4598C77.0421 43.5862 76.6629 43.8029 76.2477 44.0015L75.9227 44.164C75.8504 44.2001 75.7963 44.2182 75.706 44.2543L75.6157 44.2904C75.5435 44.3084 75.6518 44.2904 75.4352 44.3446C75.2365 44.3807 74.9838 44.3446 74.7671 44.2362C74.5504 44.1279 74.3699 43.8751 74.406 43.9293C74.2254 43.7126 74.081 43.5321 73.9365 43.3334C73.6477 42.9543 73.3949 42.5751 73.1421 42.2682L72.7268 41.7626L72.2935 41.2751C71.7157 40.6432 71.1018 40.0473 70.4518 39.5057C69.1338 38.4404 67.6713 37.5557 66.1185 36.9418C64.5657 36.3279 62.9407 35.9487 61.3157 35.8223C59.6907 35.6959 58.0477 35.8223 56.4588 36.1654C54.8699 36.5265 53.3171 37.1043 51.9088 37.8807C50.5004 38.6571 49.1643 39.5779 47.9004 40.6612C46.6546 41.7626 45.5171 43.0446 44.6324 44.5251C44.4157 44.9043 44.181 45.2654 44.0185 45.6626L43.9102 45.9696L43.874 46.0418L43.856 46.0779C43.8199 46.1501 43.9102 45.9876 43.7838 46.2404C43.6032 46.6015 43.1157 46.9084 42.6282 46.8543C42.3754 46.8362 42.1407 46.6918 42.2129 46.7279L42.1768 46.7098C41.9782 46.6196 41.7796 46.5473 41.581 46.4751C41.3824 46.4029 41.2199 46.3487 41.0213 46.2946C40.8227 46.2404 40.624 46.1862 40.4254 46.1501C40.0282 46.0598 39.6129 45.9876 39.2157 45.9515C37.5907 45.7709 35.9477 45.9876 34.5393 46.5112C33.131 47.0529 31.9754 47.9196 31.1629 49.0571C30.7657 49.6348 30.4227 50.2848 30.224 50.9529C30.0074 51.639 29.9171 52.3793 29.9171 53.0834C29.9352 53.8057 30.0615 54.5098 30.3143 55.1779C30.3685 55.3404 30.4588 55.5029 30.531 55.6654L30.7838 56.1348L31.0727 56.5682C31.1449 56.6765 31.2352 56.7848 31.3435 56.8751C31.7407 57.2543 32.2643 57.5071 32.8421 57.5973C33.0588 57.6334 33.6004 57.6334 34.0518 57.6515L35.424 57.6876L40.8949 57.814L46.3657 57.9946C53.6602 58.2473 60.9365 58.5362 68.231 58.9876C68.3574 58.9876 68.4477 59.0959 68.4477 59.2223C68.3754 59.3487 68.2852 59.439 68.1768 59.439Z" fill="#0066B3"/>
<path d="M10.1465 80.5459V66.8057H15.0757C16.2673 66.8057 17.2965 67.0043 18.1451 67.3834C18.9937 67.7626 19.6798 68.2862 20.2034 68.9543C20.727 69.6043 21.1243 70.3446 21.359 71.1751C21.5937 71.9876 21.7201 72.8362 21.7201 73.6848C21.7201 74.4612 21.6118 75.2557 21.377 76.0501C21.1423 76.8626 20.7631 77.6029 20.2576 78.2709C19.734 78.9571 19.0479 79.4987 18.1993 79.914C17.3507 80.3293 16.2854 80.5279 15.0215 80.5279H10.1465V80.5459ZM12.9632 77.8557H15.2562C15.9062 77.8557 16.4479 77.7293 16.8993 77.4765C17.3506 77.2237 17.7118 76.8987 17.9826 76.4834C18.2534 76.0682 18.452 75.6168 18.5784 75.1293C18.7048 74.6418 18.777 74.1543 18.777 73.6668C18.777 73.1612 18.7048 72.6557 18.5784 72.1501C18.452 71.6446 18.2534 71.1932 17.9826 70.7959C17.7118 70.3987 17.3687 70.0737 16.9534 69.8209C16.5382 69.5862 16.0326 69.4598 15.4548 69.4598H12.9632V77.8557Z" fill="#C4161C"/>
<path d="M22.2617 80.5459L27.6242 66.8057H30.3145L35.677 80.5459H32.6076L31.5603 77.7834H26.3603L25.3312 80.5459H22.2617ZM27.2992 75.1834H30.6034L29.3576 71.9696C29.3214 71.8793 29.2673 71.7529 29.2131 71.6265C29.1589 71.5001 29.1048 71.3737 29.0687 71.2473C29.0145 71.1209 28.9784 70.9946 28.9423 70.8862C28.9062 70.9946 28.8701 71.1029 28.8159 71.2473C28.7617 71.3737 28.7256 71.5001 28.6714 71.6265C28.6173 71.7529 28.5812 71.8612 28.527 71.9696L27.2992 75.1834Z" fill="#C4161C"/>
<path d="M37.3574 80.5459V66.8057H43.3338C44.4894 66.8057 45.4283 67.0223 46.1144 67.4557C46.8005 67.889 47.306 68.4307 47.613 69.0987C47.9199 69.7668 48.0644 70.4709 48.0644 71.1932C48.0644 71.6987 47.9741 72.2043 47.7935 72.7098C47.613 73.2154 47.3421 73.7029 46.963 74.1182C46.5838 74.5515 46.0963 74.8946 45.5005 75.1473C44.9046 75.4182 44.1824 75.5446 43.3338 75.5446H40.1741V80.5459H37.3574ZM40.1741 72.8904H43.4602C43.8755 72.8904 44.2005 72.8001 44.4533 72.6376C44.706 72.4751 44.8866 72.2584 44.9949 71.9876C45.1033 71.7168 45.1574 71.464 45.1574 71.1932C45.1574 70.9404 45.1033 70.6876 45.013 70.4168C44.9046 70.1459 44.7421 69.9293 44.4894 69.7487C44.2366 69.5682 43.8935 69.4779 43.4783 69.4779H40.1921V72.8904H40.1741Z" fill="#C4161C"/>
<path d="M49.7969 80.5459V66.8057H52.6316V72.1321H58.1927V66.8057H61.0274V80.5459H58.1927V74.8223H52.6316V80.5459H49.7969Z" fill="#C4161C"/>
<path d="M69.3689 80.7805C68.2675 80.7805 67.3286 80.5639 66.5703 80.1666C65.7939 79.7514 65.18 79.1916 64.6925 78.5055C64.2231 77.8194 63.88 77.043 63.6453 76.2125C63.4286 75.3819 63.3203 74.5333 63.3203 73.6847C63.3203 72.8361 63.4286 71.9875 63.6453 71.1569C63.862 70.3264 64.205 69.55 64.6925 68.8639C65.162 68.1778 65.7939 67.618 66.5703 67.2028C67.3467 66.7875 68.2856 66.5889 69.3689 66.5889C70.4884 66.5889 71.4273 66.8055 72.1856 67.2028C72.9439 67.618 73.5759 68.1778 74.0453 68.8639C74.5148 69.55 74.8578 70.3264 75.0745 71.1569C75.2911 71.9875 75.3995 72.8361 75.3995 73.6847C75.3995 74.5333 75.2911 75.3819 75.0745 76.2125C74.8578 77.043 74.5148 77.8194 74.0453 78.5055C73.5759 79.1916 72.9439 79.7514 72.1856 80.1666C71.4273 80.5639 70.4884 80.7805 69.3689 80.7805ZM69.3689 78.0541C69.9467 78.0541 70.4342 77.9278 70.8314 77.6569C71.2286 77.3861 71.5536 77.043 71.7884 76.5917C72.0231 76.1583 72.2036 75.6708 72.312 75.1653C72.4203 74.6597 72.4745 74.1541 72.4745 73.6847C72.4745 73.1791 72.4203 72.6555 72.312 72.15C72.2036 71.6264 72.0411 71.1569 71.7884 70.7236C71.5536 70.2903 71.2286 69.9472 70.8314 69.6764C70.4342 69.4055 69.9467 69.2791 69.3509 69.2791C68.755 69.2791 68.2675 69.4236 67.8703 69.6944C67.4731 69.9653 67.1481 70.3264 66.9134 70.7597C66.6786 71.193 66.4981 71.6805 66.3898 72.1861C66.2814 72.7097 66.2273 73.1972 66.2273 73.6847C66.2273 74.1903 66.2814 74.6958 66.3898 75.2194C66.4981 75.725 66.6786 76.2125 66.9134 76.6458C67.1661 77.0791 67.4731 77.4222 67.8884 77.693C68.3036 77.9097 68.7911 78.0541 69.3689 78.0541Z" fill="#C4161C"/>
<path d="M80.4565 80.5459L75.5273 66.8057H78.5787L81.594 75.6168C81.6301 75.7432 81.6662 75.8696 81.7204 75.9779C81.7565 76.1043 81.7926 76.1946 81.8107 76.2668C81.8287 76.1946 81.8468 76.1043 81.8829 75.9959C81.919 75.8696 81.9551 75.7432 82.0093 75.6168L85.0065 66.8057H88.0218L83.1107 80.5459H80.4565Z" fill="#C4161C"/>
<path d="M92.2639 66.8057H89.4473V80.5459H92.2639V66.8057Z" fill="#C4161C"/>
<path d="M95.1348 80.5459V66.8057H97.7167L102.899 74.3348C102.971 74.4432 103.061 74.5876 103.188 74.8043C103.314 75.0209 103.404 75.2015 103.476 75.3459C103.458 75.2015 103.44 75.0209 103.44 74.8043C103.422 74.5876 103.422 74.4251 103.422 74.3168V66.8057H106.221V80.5459H103.747L98.457 72.9626C98.3848 72.8543 98.2945 72.6918 98.1681 72.4751C98.0417 72.2584 97.9514 72.0779 97.8792 71.9154C97.8973 72.0779 97.9153 72.2584 97.9153 72.4571C97.9153 72.6557 97.9153 72.8182 97.9153 72.9446V80.5279H95.1348V80.5459Z" fill="#C4161C"/>
<path d="M107.918 80.5459L113.28 66.8057H115.971L121.333 80.5459H118.264L117.217 77.7834H112.035L111.005 80.5459H107.918ZM112.955 75.1834H116.26L115.014 71.9696C114.978 71.8793 114.924 71.7529 114.869 71.6265C114.815 71.5001 114.761 71.3737 114.725 71.2473C114.671 71.1209 114.635 70.9946 114.599 70.8862C114.562 70.9946 114.526 71.1029 114.472 71.2473C114.418 71.3737 114.382 71.5001 114.328 71.6265C114.274 71.7529 114.237 71.8612 114.183 71.9696L112.955 75.1834Z" fill="#C4161C"/>
</g>
<defs>
<clipPath id="clip0_3014_20928">
<rect width="130" height="130" fill="white"/>
</clipPath>
</defs>
</svg>
