<svg version="1.1" id="Layer_1" xmlns="http://www.w3.org/2000/svg" xmlns:xlink="http://www.w3.org/1999/xlink" x="0px" y="0px"
	 width="100%" viewBox="0 0 4168 4168" enable-background="new 0 0 4168 4168" xml:space="preserve">
<path fill="#1D4381" opacity="1.000000" stroke="none" 
	d="
M4168.000000,4172.000000 
	C2780.271484,4172.000000 1392.543091,4172.000000 4.000000,4172.000000 
	C4.000000,2785.209717 4.000000,1398.419434 5.822884,9.880252 
	C16.311773,8.140515 24.977777,8.157527 33.643784,8.157535 
	C1402.871460,8.158709 2772.099121,8.157893 4141.326660,8.175768 
	C4149.986816,8.175880 4158.647461,8.434887 4167.536621,10.318157 
	C4167.844727,18.727961 4167.993164,25.392605 4167.993164,32.057251 
	C4168.002441,1412.038208 4168.000977,2792.019043 4168.000000,4172.000000 
M2451.570068,2066.472412 
	C2488.628174,2105.735107 2525.680420,2145.002930 2562.745850,2184.258789 
	C2600.268555,2223.999023 2637.883545,2263.652344 2675.250732,2303.538330 
	C2681.036133,2309.713867 2686.865967,2313.289795 2695.858643,2313.174805 
	C2733.178955,2312.697998 2770.508545,2312.981934 2807.834717,2312.897461 
	C2810.932617,2312.890625 2814.643799,2313.641846 2816.551514,2307.949951 
	C2713.771240,2203.753418 2610.499756,2099.058594 2505.873779,1992.990845 
	C2513.043457,1989.832397 2518.266113,1987.256104 2523.682129,1985.187134 
	C2617.902344,1949.194458 2678.676025,1882.192383 2708.330566,1786.274414 
	C2718.221191,1754.283569 2723.330322,1721.474243 2725.864014,1688.145142 
	C2730.457764,1627.723999 2725.707520,1568.149780 2707.553955,1510.273560 
	C2675.111816,1406.842773 2607.455811,1337.758911 2503.326416,1305.714844 
	C2463.581055,1293.484009 2422.647949,1288.358765 2381.092285,1288.341431 
	C2279.111816,1288.298950 2177.131348,1288.325806 2075.150879,1288.325317 
	C1943.842651,1288.324829 1812.534302,1288.300171 1681.226074,1288.393677 
	C1674.184937,1288.398682 1666.861694,1287.124146 1658.754517,1290.357178 
	C1658.754517,1298.826660 1658.754517,1306.754150 1658.754517,1314.681519 
	C1658.754517,1638.619629 1658.754272,1962.557739 1658.755127,2286.495850 
	C1658.755127,2291.161621 1658.578125,2295.837646 1658.832642,2300.489990 
	C1659.039062,2304.260254 1659.770996,2308.001953 1660.304321,2312.014893 
	C1663.957275,2312.402832 1666.560425,2312.912598 1669.164917,2312.919678 
	C1693.160034,2312.984619 1717.156128,2313.046875 1741.150269,2312.877441 
	C1744.866211,2312.851318 1748.573853,2311.649658 1753.010742,2310.862793 
	C1753.010742,2301.247070 1753.010620,2292.629150 1753.010620,2284.011230 
	C1753.010620,1994.066650 1753.010620,1704.122070 1753.011353,1414.177490 
	C1753.011353,1408.178589 1752.746216,1402.162109 1753.130005,1396.187378 
	C1753.369751,1392.454590 1754.595459,1388.785278 1755.398315,1384.994995 
	C1760.395630,1384.745483 1764.368530,1384.374146 1768.341431,1384.373657 
	C1972.968994,1384.349976 2177.596680,1384.349243 2382.224121,1384.373291 
	C2406.974609,1384.376221 2431.503174,1387.059204 2455.590332,1392.546265 
	C2540.466309,1411.880615 2595.617676,1463.190674 2619.572754,1547.101685 
	C2633.675781,1596.502319 2634.839355,1647.030029 2630.145996,1697.785889 
	C2627.563477,1725.711182 2621.934570,1753.084473 2612.092773,1779.491943 
	C2589.858887,1839.152100 2549.339111,1880.702393 2489.636475,1903.161865 
	C2480.311523,1906.669922 2470.683350,1909.493896 2461.026123,1911.973877 
	C2426.565430,1920.822876 2391.362549,1923.004028 2355.955078,1923.006958 
	C2209.316406,1923.019287 2062.677734,1923.013306 1916.039185,1923.015137 
	C1910.706909,1923.015259 1905.359253,1922.783569 1900.047607,1923.118164 
	C1896.330078,1923.352295 1892.661621,1924.367798 1888.857666,1925.054810 
	C1888.857666,1953.480591 1888.857666,1980.643066 1888.857666,2007.693970 
	C1896.951050,2012.262695 1905.119873,2010.385254 1912.922852,2010.391846 
	C2059.561279,2010.514526 2206.199951,2010.501221 2352.838623,2010.444580 
	C2364.158691,2010.440186 2375.520264,2010.393433 2386.784180,2009.439331 
	C2394.199707,2008.811279 2399.425293,2011.137329 2404.330322,2016.440918 
	C2419.264160,2032.587646 2434.499756,2048.455322 2451.570068,2066.472412 
M496.902161,2125.028076 
	C533.492554,2192.586914 588.028198,2240.541504 657.475952,2272.319092 
	C687.260193,2285.947266 718.148682,2296.276855 749.927246,2303.988037 
	C800.592346,2316.282959 852.078674,2322.416992 904.095398,2325.395264 
	C991.604614,2330.406006 1078.639038,2327.274170 1165.008301,2311.822510 
	C1213.051392,2303.227539 1259.565918,2289.425049 1303.623535,2268.000000 
	C1381.853027,2229.957520 1438.099487,2171.152832 1471.255493,2090.567627 
	C1482.182861,2064.008545 1490.095947,2036.515991 1495.919312,2008.411499 
	C1505.970825,1959.900635 1509.243652,1910.778076 1509.240234,1861.352173 
	C1509.227295,1676.710815 1509.249023,1492.069580 1509.209106,1307.428223 
	C1509.207886,1301.536499 1508.677490,1295.644775 1508.403687,1289.959595 
	C1487.261841,1287.342163 1432.824707,1287.792358 1416.703857,1290.824829 
	C1416.520264,1298.295410 1416.160645,1306.136963 1416.159180,1313.978638 
	C1416.127197,1489.954468 1416.146851,1665.930298 1416.114624,1841.906128 
	C1416.111572,1858.569336 1416.293945,1875.252197 1415.585938,1891.891724 
	C1413.767944,1934.618042 1408.415405,1976.839966 1395.798828,2017.892700 
	C1371.498779,2096.962158 1322.161133,2154.118164 1246.382446,2187.831299 
	C1232.421509,2194.042480 1218.031494,2199.464844 1203.485474,2204.152588 
	C1158.864258,2218.532959 1112.878418,2225.681396 1066.212891,2229.131836 
	C982.838684,2235.296143 899.731262,2234.386719 817.144592,2219.971680 
	C777.625977,2213.073730 739.350952,2202.003906 703.009216,2184.648193 
	C635.895264,2152.596436 589.801453,2101.544678 564.906433,2031.578735 
	C559.565247,2016.567383 555.460388,2001.032471 551.918152,1985.480957 
	C542.698914,1945.006592 539.793762,1903.865112 539.818970,1862.414307 
	C539.929138,1681.105835 539.865845,1499.797485 539.864502,1318.489014 
	C539.864441,1312.489868 540.080261,1306.478638 539.765198,1300.495850 
	C539.567749,1296.745850 538.564514,1293.038452 537.977173,1289.628174 
	C508.779785,1286.872925 457.401489,1287.689453 443.053406,1291.219238 
	C442.838287,1297.514648 442.417725,1304.103027 442.416473,1310.691406 
	C442.381592,1494.666138 442.347015,1678.640869 442.421631,1862.615601 
	C442.438690,1904.651489 444.777740,1946.532471 451.973358,1988.044678 
	C460.098206,2034.917725 473.174255,2080.157715 496.902161,2125.028076 
M3326.530518,1802.000977 
	C3326.712402,1664.062866 3326.893311,1526.124756 3327.093506,1388.186646 
	C3327.094482,1387.546265 3327.221191,1386.819214 3327.545654,1386.290039 
	C3327.876221,1385.750610 3328.524414,1385.405762 3330.430420,1383.795898 
	C3335.505371,1383.656372 3342.046631,1383.324585 3348.587891,1383.320312 
	C3409.898926,1383.280273 3471.209961,1383.296509 3532.520996,1383.296265 
	C3595.831299,1383.296021 3659.141602,1383.347290 3722.451660,1383.207031 
	C3728.181885,1383.194336 3734.476562,1385.041382 3740.577881,1379.282593 
	C3740.577881,1364.902100 3740.917969,1349.606079 3740.480713,1334.332397 
	C3740.051514,1319.344604 3742.531982,1304.115601 3738.305420,1288.300537 
	C3732.797363,1288.300537 3728.211914,1288.297852 3723.626709,1288.300903 
	C3423.087158,1288.494873 3122.547607,1288.688965 2822.008057,1288.903931 
	C2821.365723,1288.904419 2820.642578,1289.084839 2820.103760,1289.418213 
	C2819.561768,1289.753174 2819.203613,1290.384888 2818.764893,1290.886597 
	C2815.619873,1311.580811 2816.179932,1368.264771 2819.945557,1382.667603 
	C2826.161133,1382.870117 2832.705811,1383.258667 2839.251221,1383.267822 
	C2879.903076,1383.324707 2920.555176,1383.296509 2961.207031,1383.296509 
	C3043.843750,1383.296509 3126.480225,1383.256714 3209.116943,1383.367432 
	C3216.189209,1383.376831 3223.580566,1382.009033 3231.613281,1385.737061 
	C3231.613281,1429.989258 3231.613281,1473.858765 3231.613281,1517.728149 
	C3231.613281,1561.712158 3231.613281,1605.696167 3231.613281,1649.680176 
	C3231.613281,1693.664185 3231.613281,1737.648193 3231.613281,1781.632202 
	C3231.613281,1826.282593 3231.613281,1870.933105 3231.613281,1915.583496 
	C3231.613281,1959.567505 3231.613281,2003.551514 3231.613281,2047.535522 
	C3231.613281,2091.519531 3231.609375,2135.503418 3231.614746,2179.487549 
	C3231.620117,2223.396973 3231.634766,2267.306641 3231.645508,2311.641113 
	C3236.977539,2312.193115 3240.885986,2312.930176 3244.797852,2312.948486 
	C3268.122070,2313.057861 3291.447998,2313.093506 3314.771240,2312.904297 
	C3318.449463,2312.874512 3322.117188,2311.573730 3326.530518,2310.716797 
	C3326.530518,2141.810791 3326.530518,1973.905884 3326.530518,1802.000977 
M2634.000488,2488.972900 
	C1905.441040,2489.054932 1176.881470,2489.136963 448.322021,2489.231445 
	C447.663208,2489.231689 446.957428,2489.308594 446.359222,2489.556396 
	C445.784607,2489.793945 445.321411,2490.300537 444.390259,2491.006592 
	C441.148285,2496.165039 441.310822,2501.728271 444.951019,2508.845703 
	C451.531891,2509.028564 458.717163,2509.402588 465.902466,2509.402832 
	C1547.748779,2509.428711 2629.594971,2509.427979 3711.441406,2509.408447 
	C3718.098145,2509.408447 3724.758789,2509.205322 3731.408447,2508.900879 
	C3732.560547,2508.848145 3733.667725,2507.809570 3735.014893,2507.113037 
	C3736.685791,2501.484619 3737.749268,2495.806885 3733.951904,2490.644043 
	C3732.318604,2490.100830 3731.075684,2489.325195 3729.832275,2489.324707 
	C3365.888428,2489.172119 3001.944336,2489.072998 2634.000488,2488.972900 
M1698.625366,2788.525635 
	C1700.856323,2785.248779 1703.674805,2782.226562 1705.224121,2778.654053 
	C1716.550903,2752.539307 1704.587524,2726.499512 1677.284668,2718.717529 
	C1669.744019,2716.568359 1661.573486,2715.901367 1653.681519,2715.836670 
	C1617.741577,2715.541260 1581.797607,2715.667969 1545.855469,2715.745605 
	C1541.313477,2715.755371 1536.772705,2716.374268 1531.880737,2716.737305 
	C1531.271851,2719.935547 1530.360474,2722.496338 1530.359375,2725.057617 
	C1530.335815,2776.970459 1530.398315,2828.883057 1530.550293,2880.795654 
	C1530.555786,2882.671387 1531.646729,2884.543945 1532.170044,2886.220215 
	C1533.038818,2886.613770 1533.622437,2887.107422 1534.208374,2887.110352 
	C1578.100586,2887.318848 1621.995483,2887.764893 1665.882935,2887.377930 
	C1672.868164,2887.316162 1680.265503,2884.409668 1686.713013,2881.262451 
	C1718.788086,2865.604736 1719.533081,2817.920898 1694.326294,2803.007324 
	C1692.047363,2801.659180 1688.032349,2801.044189 1688.439453,2796.539307 
	C1691.190796,2794.481689 1693.837646,2792.502197 1698.625366,2788.525635 
M3503.565430,2852.499023 
	C3501.957520,2858.263672 3500.453125,2864.059814 3498.712158,2869.783936 
	C3497.017578,2875.357178 3494.469971,2880.797363 3496.226074,2886.895020 
	C3503.474365,2886.895020 3509.825684,2886.895020 3516.591553,2886.895020 
	C3530.033203,2845.218262 3539.653320,2803.289795 3553.081299,2762.083008 
	C3560.214111,2764.752197 3560.710449,2770.748535 3562.598633,2775.342285 
	C3575.490967,2806.708740 3588.025146,2838.222168 3600.758301,2869.654541 
	C3602.749756,2874.571289 3604.697754,2879.608154 3607.486816,2884.076904 
	C3612.661377,2892.367188 3623.640869,2892.014404 3628.685303,2883.430908 
	C3631.361084,2878.877686 3633.276123,2873.850830 3635.284424,2868.935791 
	C3648.615723,2836.311279 3661.816406,2803.633301 3675.260254,2771.055664 
	C3676.633301,2767.728760 3679.334473,2764.949707 3682.703125,2760.048584 
	C3695.245850,2803.836914 3707.114258,2845.271484 3719.286621,2887.767334 
	C3727.049561,2886.905762 3734.114014,2890.456543 3741.048828,2885.226318 
	C3740.384277,2881.514648 3740.068848,2878.190430 3739.180908,2875.026611 
	C3725.886230,2827.656494 3712.526855,2780.305176 3699.144531,2732.959717 
	C3698.060303,2729.123779 3696.854980,2725.305664 3695.425293,2721.587402 
	C3693.589355,2716.812988 3689.856689,2713.986816 3684.828857,2713.803711 
	C3679.768066,2713.619385 3675.838379,2716.355469 3673.628418,2720.837402 
	C3671.281738,2725.596436 3669.428467,2730.601562 3667.417480,2735.522949 
	C3653.332764,2769.994141 3639.314941,2804.492920 3625.118896,2838.917725 
	C3623.512939,2842.812988 3620.931885,2846.305908 3617.734619,2851.832275 
	C3613.927490,2842.936279 3610.974609,2836.283691 3608.217285,2829.551025 
	C3594.859375,2796.938477 3581.575684,2764.295166 3568.203125,2731.688721 
	C3566.442871,2727.396729 3564.836670,2722.902832 3562.260986,2719.112549 
	C3556.843994,2711.139404 3544.987061,2712.163574 3541.062744,2720.925537 
	C3538.905029,2725.743652 3537.694580,2731.003906 3536.245850,2736.118408 
	C3525.553711,2773.861572 3514.908936,2811.618164 3503.565430,2852.499023 
M1043.807861,2842.045654 
	C1042.048706,2844.728271 1040.289551,2847.411133 1037.521729,2851.632324 
	C1033.982666,2843.432617 1030.995728,2836.801025 1028.238525,2830.075195 
	C1014.853882,2797.424561 1001.549133,2764.741211 988.164124,2732.090820 
	C986.400391,2727.788574 984.827637,2723.288330 982.311218,2719.438965 
	C977.037659,2711.372070 965.160767,2712.088867 960.982849,2720.566406 
	C959.525635,2723.523193 958.697937,2726.815918 957.791748,2730.014648 
	C944.001038,2778.694092 930.197327,2827.369629 916.582581,2876.098389 
	C915.614563,2879.562988 916.094788,2883.432617 915.891174,2887.313965 
	C923.276184,2887.313965 929.150208,2887.313965 936.107422,2887.313965 
	C949.935547,2845.599609 959.473022,2802.861328 973.815308,2759.137695 
	C976.733154,2764.262207 978.989868,2767.388916 980.414185,2770.857422 
	C993.565796,2802.885986 1006.569153,2834.975098 1019.627197,2867.041992 
	C1021.634766,2871.971680 1023.582947,2876.931152 1025.772339,2881.780273 
	C1028.179688,2887.112793 1032.475342,2890.240967 1038.325806,2889.971680 
	C1043.249634,2889.745117 1047.131226,2887.095215 1049.210693,2882.360596 
	C1051.350708,2877.487793 1053.543091,2872.635254 1055.550903,2867.708008 
	C1068.365723,2836.262695 1081.049194,2804.763428 1094.030273,2773.387207 
	C1095.660522,2769.446777 1095.631104,2763.751221 1102.716064,2762.743652 
	C1104.461792,2768.075928 1106.435669,2773.500488 1108.017456,2779.036865 
	C1117.345459,2811.683350 1126.535645,2844.369385 1135.915527,2877.000977 
	C1136.960693,2880.636475 1138.911011,2884.011719 1140.393921,2887.398926 
	C1147.850708,2887.654541 1154.406250,2889.793213 1160.694580,2885.579346 
	C1160.296021,2882.534180 1160.272705,2879.822021 1159.562500,2877.302979 
	C1145.651611,2827.967285 1131.669678,2778.651855 1117.665527,2729.342285 
	C1116.759277,2726.151367 1115.943359,2722.840332 1114.414551,2719.938721 
	C1110.366821,2712.256592 1099.393433,2711.702881 1094.630981,2719.149658 
	C1091.797852,2723.579834 1089.957031,2728.681641 1087.945801,2733.593994 
	C1073.567383,2768.715576 1059.260010,2803.866455 1043.807861,2842.045654 
M2725.957031,2715.663330 
	C2697.979492,2715.854736 2670.002197,2716.042480 2642.024902,2716.259033 
	C2641.380615,2716.263916 2640.676758,2716.479980 2640.113770,2716.797363 
	C2639.566895,2717.105713 2639.165527,2717.672119 2637.757324,2719.043457 
	C2637.539062,2720.570068 2636.862305,2723.109863 2636.859131,2725.650635 
	C2636.792969,2776.310303 2636.768799,2826.969971 2636.887451,2877.629395 
	C2636.894775,2880.735107 2638.153076,2883.837891 2638.792725,2886.773438 
	C2646.171387,2888.315186 2652.559082,2888.871826 2659.658203,2886.226562 
	C2659.907959,2879.015137 2660.320068,2872.459229 2660.331543,2865.902588 
	C2660.396973,2828.574219 2660.314697,2791.245605 2660.438721,2753.917725 
	C2660.453369,2749.481689 2661.416260,2745.048828 2661.955811,2740.476807 
	C2665.648438,2740.059082 2668.250977,2739.514404 2670.854492,2739.509033 
	C2700.183838,2739.447266 2729.513428,2739.449219 2758.842773,2739.492676 
	C2762.167480,2739.497803 2765.531006,2739.603271 2768.809570,2740.102295 
	C2783.275391,2742.303223 2793.234863,2751.507324 2795.444092,2765.931885 
	C2796.539795,2773.086426 2796.580078,2780.625244 2795.692871,2787.816895 
	C2793.558838,2805.117920 2782.762451,2815.025879 2765.256836,2816.643311 
	C2760.624023,2817.071533 2755.935303,2816.965820 2751.271729,2816.974609 
	C2732.607666,2817.010010 2713.942871,2816.933350 2695.279541,2817.047363 
	C2691.512695,2817.070312 2687.749512,2817.743408 2684.395996,2818.076172 
	C2682.232178,2829.329102 2682.297852,2829.329346 2685.374268,2839.671875 
	C2709.445312,2839.671875 2733.959717,2839.671875 2757.659180,2839.671875 
	C2773.744873,2856.674561 2788.790527,2872.577637 2803.378418,2887.997314 
	C2809.495850,2887.997314 2814.185059,2888.336914 2818.799805,2887.896729 
	C2822.961182,2887.500000 2828.099121,2890.288330 2831.964355,2883.675049 
	C2825.048584,2876.048828 2817.495850,2868.710449 2810.140869,2861.185791 
	C2802.357422,2853.223145 2793.981934,2845.762451 2785.828369,2834.991455 
	C2788.407959,2833.578857 2790.140137,2832.708252 2791.796387,2831.711426 
	C2813.717041,2818.514160 2820.754883,2797.996338 2820.005371,2773.806885 
	C2818.918701,2738.739990 2797.101562,2716.912842 2761.925781,2715.763428 
	C2751.271729,2715.415283 2740.597168,2715.679443 2725.957031,2715.663330 
M1971.281860,2884.733643 
	C1985.091553,2889.288818 1991.442017,2889.264648 2003.698730,2884.006348 
	C1995.894775,2876.139648 1988.394043,2868.728027 1981.065430,2861.149902 
	C1973.327637,2853.148926 1964.880737,2845.753174 1957.260986,2835.689697 
	C1961.436157,2832.808838 1964.526611,2830.612061 1967.680054,2828.510010 
	C1996.028198,2809.609619 1998.182495,2759.936035 1977.635376,2735.216309 
	C1971.986572,2728.420410 1965.126587,2722.881348 1956.722656,2720.422607 
	C1948.521606,2718.022949 1939.872925,2716.010254 1931.394043,2715.901611 
	C1894.129028,2715.422363 1856.853882,2715.628418 1819.583374,2715.795898 
	C1815.907471,2715.812256 1812.237915,2717.260010 1808.880615,2717.976318 
	C1806.338501,2756.951904 1807.334839,2871.567383 1810.427368,2887.089844 
	C1816.608032,2887.089844 1822.961182,2887.089844 1829.585327,2887.089844 
	C1832.692993,2880.089844 1831.608032,2873.373047 1831.624878,2866.864014 
	C1831.723267,2828.927490 1831.615356,2790.989990 1831.764160,2753.053711 
	C1831.781250,2748.693115 1832.956299,2744.337158 1833.664673,2739.498291 
	C1867.527832,2739.498291 1900.125244,2739.497314 1932.722656,2739.498779 
	C1956.719238,2739.499756 1967.067017,2755.595947 1967.791992,2774.553711 
	C1968.875000,2802.881592 1956.255371,2816.576172 1927.793457,2816.938232 
	C1907.164307,2817.200439 1886.528809,2816.926025 1865.897583,2817.082275 
	C1862.070923,2817.111328 1858.250977,2818.050537 1854.466797,2818.564209 
	C1852.280762,2825.886475 1851.631714,2832.147217 1855.460693,2839.476562 
	C1880.172119,2839.476562 1904.663330,2839.476562 1928.731689,2839.476562 
	C1942.730469,2854.487549 1955.868408,2868.575439 1971.281860,2884.733643 
M719.758545,2758.230713 
	C709.050598,2747.294434 698.384277,2736.316895 687.609558,2725.446777 
	C684.343994,2722.152588 681.086365,2718.704102 677.286743,2716.116455 
	C669.728394,2710.968506 660.629761,2714.658691 658.852905,2723.546875 
	C657.950073,2728.062988 657.823242,2732.789551 657.816040,2737.421631 
	C657.745789,2782.674072 657.730530,2827.926758 657.845520,2873.178955 
	C657.856873,2877.661377 658.837585,2882.141113 659.365479,2886.596924 
	C666.707825,2888.284424 673.017822,2889.068604 680.326965,2885.632568 
	C680.326965,2876.583496 680.326904,2868.009277 680.326904,2859.435059 
	C680.326904,2850.783691 680.326904,2842.132568 680.326904,2833.481201 
	C680.326904,2824.830078 680.326904,2816.178711 680.326904,2807.527588 
	C680.326904,2798.876465 680.118896,2790.218750 680.386719,2781.575928 
	C680.643066,2773.304443 678.965698,2764.772705 682.568604,2754.661133 
	C688.187134,2759.926270 692.560547,2763.706543 696.574890,2767.836182 
	C731.826965,2804.099121 766.977112,2840.460938 802.273193,2876.680908 
	C806.403320,2880.919189 810.802368,2885.209473 815.843445,2888.169922 
	C822.900513,2892.314453 831.157166,2887.948242 832.444763,2879.874023 
	C833.172302,2875.311768 833.122009,2870.597900 833.126465,2865.951904 
	C833.170166,2820.699463 833.173218,2775.446777 833.116882,2730.194336 
	C833.111206,2725.651367 832.637878,2721.108643 832.342896,2715.879883 
	C825.080017,2715.144775 818.756653,2713.533447 812.800476,2716.601562 
	C812.219421,2717.625732 811.606384,2718.202881 811.603149,2718.783447 
	C811.385803,2758.033691 811.227417,2797.283936 811.015686,2836.534180 
	C811.005066,2838.504883 810.599487,2840.478027 810.314880,2842.440674 
	C810.220642,2843.090576 810.092468,2843.868164 809.679260,2844.300049 
	C809.293518,2844.703369 808.508911,2844.724854 807.899841,2844.914551 
	C807.251465,2845.055176 806.256165,2845.540771 806.003967,2845.287354 
	C777.867004,2816.988525 749.785400,2788.634277 719.758545,2758.230713 
M2049.827637,2872.440430 
	C2065.445801,2883.922119 2083.043457,2888.517822 2102.283691,2888.025879 
	C2115.569336,2887.686279 2128.896973,2888.472656 2142.159424,2887.816650 
	C2174.900391,2886.196289 2198.631104,2870.474609 2212.986084,2840.896973 
	C2221.398682,2823.563232 2222.722900,2805.177246 2220.643799,2786.374268 
	C2216.355225,2747.578125 2187.275635,2718.708984 2148.442139,2716.223877 
	C2128.586670,2714.953369 2108.522217,2715.017578 2088.659180,2716.231934 
	C2054.936035,2718.293701 2028.137085,2740.213379 2019.543091,2773.046875 
	C2009.678345,2810.733887 2017.328979,2844.128174 2049.827637,2872.440430 
M606.882385,2789.906982 
	C606.282532,2802.521973 606.301453,2815.204590 604.937500,2827.736328 
	C602.907898,2846.384766 591.603943,2858.109131 574.002930,2862.912109 
	C550.418335,2869.348145 526.427673,2869.416504 502.882721,2862.688965 
	C484.367493,2857.398193 473.984344,2844.370850 472.009827,2825.114746 
	C471.331848,2818.502686 471.235779,2811.811523 471.210419,2805.155273 
	C471.119019,2781.166260 471.232880,2757.176025 471.120361,2733.187012 
	C471.095947,2727.981689 470.453918,2722.778809 470.080231,2717.340088 
	C462.126770,2715.330322 455.180756,2714.689941 447.816650,2717.706299 
	C447.816650,2754.689697 447.815704,2791.294189 447.823822,2827.898682 
	C447.823975,2828.562500 447.903107,2829.230469 447.993835,2829.889893 
	C451.807037,2857.593750 466.151733,2876.385010 493.528290,2884.668701 
	C507.754425,2888.973633 522.355286,2890.217773 536.964172,2890.364258 
	C552.936951,2890.524414 568.906189,2889.165283 584.333130,2884.229004 
	C609.790649,2876.082520 624.074036,2858.490479 627.930359,2832.350342 
	C628.995544,2825.129639 629.233643,2817.739746 629.274658,2810.424072 
	C629.427917,2783.103271 629.389343,2755.781006 629.290466,2728.459961 
	C629.276672,2724.661133 628.522461,2720.864746 628.104431,2717.007080 
	C620.616394,2715.416748 614.235046,2714.522217 606.882568,2718.275635 
	C606.882568,2740.705811 606.882568,2763.323975 606.882385,2789.906982 
M3324.713379,2778.245850 
	C3305.848145,2809.658447 3286.938965,2841.044678 3268.170410,2872.515137 
	C3265.589111,2876.843018 3263.707031,2881.587891 3261.026123,2887.120361 
	C3270.584473,2887.120361 3278.421875,2887.120361 3286.168945,2887.120361 
	C3290.017334,2880.759033 3293.498047,2875.090088 3296.896973,2869.372559 
	C3318.345459,2833.295166 3339.734863,2797.182373 3361.267090,2761.155029 
	C3363.745605,2757.007568 3366.985107,2753.314453 3370.100830,2749.100830 
	C3384.319336,2768.470459 3405.344971,2804.687012 3411.230225,2820.082031 
	C3400.644043,2822.369385 3390.147461,2820.872559 3379.815674,2821.312744 
	C3369.285400,2821.761963 3358.632324,2820.274170 3348.515625,2822.451416 
	C3344.231445,2828.263428 3339.669189,2832.977051 3339.651611,2841.637451 
	C3369.356201,2841.752441 3397.831543,2841.862549 3426.525391,2841.973633 
	C3436.123535,2857.572754 3445.141846,2872.229492 3454.287842,2887.093750 
	C3462.958740,2888.128662 3471.161865,2889.108643 3480.854248,2886.074707 
	C3478.382568,2881.343506 3476.749756,2877.798340 3474.755859,2874.469482 
	C3461.062256,2851.606201 3447.282471,2828.794678 3433.551025,2805.954346 
	C3418.104248,2780.260254 3402.757568,2754.505859 3387.218750,2728.867676 
	C3374.761475,2708.313232 3367.319580,2708.084961 3355.175537,2727.866943 
	C3345.416016,2743.763916 3335.936279,2759.832764 3324.713379,2778.245850 
M2573.660889,2715.649170 
	C2537.013184,2715.731934 2500.365234,2715.800537 2463.717773,2715.958008 
	C2462.501709,2715.963379 2461.289551,2716.867188 2459.772949,2717.472900 
	C2459.216797,2719.142090 2458.060547,2720.998779 2458.057129,2722.857422 
	C2457.959717,2775.492920 2457.959229,2828.128418 2458.058594,2880.763916 
	C2458.062012,2882.617920 2459.243164,2884.469727 2459.832031,2886.195557 
	C2476.084229,2888.653809 2590.004395,2888.699707 2607.827148,2886.198242 
	C2609.630615,2879.253906 2610.222656,2872.260742 2606.459473,2864.333496 
	C2592.628662,2864.333496 2578.690186,2864.333496 2564.751709,2864.333496 
	C2551.424072,2864.333496 2538.092773,2864.528076 2524.769775,2864.279541 
	C2510.896240,2864.020996 2496.928955,2865.522217 2483.304688,2863.150146 
	C2480.538086,2846.533936 2480.442627,2758.573730 2483.324707,2739.692383 
	C2503.512695,2739.249512 2524.059814,2739.507080 2544.594727,2739.465576 
	C2565.189941,2739.423828 2585.785156,2739.456055 2606.248047,2739.456055 
	C2609.861572,2731.481445 2609.415039,2724.451660 2607.503906,2716.694336 
	C2597.311523,2714.667480 2587.367432,2716.072510 2573.660889,2715.649170 
M1285.926270,2864.356934 
	C1273.284912,2864.356934 1260.639038,2864.567627 1248.003418,2864.298584 
	C1234.963501,2864.020996 1221.770874,2865.569824 1207.671997,2862.846436 
	C1207.671997,2841.743896 1207.382568,2821.870117 1207.752319,2802.008301 
	C1208.131592,2781.638672 1206.092407,2761.154297 1209.233276,2739.432129 
	C1216.721680,2739.432129 1223.256958,2739.432861 1229.792114,2739.432129 
	C1260.397461,2739.429443 1291.003418,2739.504883 1321.607788,2739.335205 
	C1325.982178,2739.311035 1330.350098,2738.101807 1334.552124,2737.466553 
	C1335.813965,2729.732910 1336.774170,2723.313965 1334.011108,2717.213623 
	C1331.164185,2716.592041 1329.267456,2715.819092 1327.369263,2715.815674 
	C1282.792480,2715.737793 1238.215454,2715.697266 1193.639038,2715.835205 
	C1190.617188,2715.844727 1187.599854,2717.313721 1183.984741,2718.259521 
	C1183.984741,2747.033936 1183.782593,2774.947998 1184.041748,2802.857666 
	C1184.299194,2830.584473 1182.869019,2858.366943 1185.098389,2887.304199 
	C1202.684204,2888.632568 1219.199463,2887.814209 1235.667725,2887.961182 
	C1252.299927,2888.109863 1268.943726,2888.344727 1285.564941,2887.894531 
	C1301.961792,2887.449951 1318.549194,2889.946777 1335.936035,2885.840576 
	C1335.535645,2878.793945 1335.175171,2872.448730 1334.736694,2864.733398 
	C1318.908813,2864.600586 1304.396362,2864.478760 1285.926270,2864.356934 
M3091.646484,2738.439941 
	C3091.647705,2783.007812 3091.589355,2827.576172 3091.731934,2872.143555 
	C3091.748047,2877.200439 3090.011963,2882.896729 3096.075684,2887.993896 
	C3111.528564,2887.993896 3128.106934,2887.993896 3144.685547,2887.993896 
	C3160.650146,2887.993896 3176.620605,2888.265625 3192.577637,2887.918213 
	C3208.997559,2887.561035 3225.551025,2889.487793 3242.364746,2886.484619 
	C3242.364746,2879.162109 3242.364746,2872.846680 3242.364746,2865.418213 
	C3235.577148,2865.028564 3229.736572,2864.421387 3223.894043,2864.403076 
	C3192.630371,2864.304932 3161.365967,2864.398682 3130.102295,2864.301025 
	C3125.652344,2864.287109 3121.204590,2863.590820 3117.030029,2863.233643 
	C3114.291260,2842.031006 3114.666748,2756.883057 3117.623291,2740.046143 
	C3123.808105,2739.848145 3130.307861,2739.474365 3136.808350,2739.460449 
	C3167.407227,2739.395020 3198.006592,2739.497314 3228.604736,2739.349365 
	C3233.047852,2739.327881 3237.486084,2738.275391 3242.054932,2737.683350 
	C3242.054932,2730.242676 3242.054932,2723.907715 3242.054932,2717.056396 
	C3238.484863,2716.505127 3235.944824,2715.774658 3233.403809,2715.770508 
	C3189.501221,2715.700928 3145.598877,2715.681152 3101.696533,2715.805664 
	C3098.637451,2715.814453 3095.582031,2717.040771 3091.647461,2717.890381 
	C3091.647461,2724.029053 3091.647461,2729.286133 3091.646484,2738.439941 
M2299.661377,2858.707031 
	C2304.863770,2867.216309 2309.650879,2876.018311 2315.388184,2884.150146 
	C2320.812744,2891.838623 2329.746826,2891.906982 2335.656738,2884.840332 
	C2338.197021,2881.802734 2340.169189,2878.265381 2342.223145,2874.849121 
	C2371.700195,2825.822021 2401.172363,2776.792236 2430.542725,2727.701172 
	C2432.440918,2724.528076 2433.496094,2720.850586 2435.300293,2716.558594 
	C2426.069092,2716.558594 2418.249023,2716.558594 2410.246338,2716.558594 
	C2403.114258,2728.489502 2396.289307,2739.862549 2389.508545,2751.261719 
	C2382.707520,2762.694824 2375.944580,2774.150879 2369.176025,2785.603516 
	C2362.069092,2797.628906 2355.275146,2809.852295 2347.788818,2821.636475 
	C2340.794434,2832.646240 2336.122314,2845.283691 2325.585938,2855.095947 
	C2297.043701,2808.564941 2270.804199,2761.625488 2242.333008,2715.693848 
	C2237.480225,2715.693848 2233.505615,2715.523926 2229.552002,2715.739990 
	C2225.322510,2715.971191 2220.568359,2714.477783 2217.151855,2717.943604 
	C2217.683350,2720.119873 2217.704834,2721.541992 2218.335938,2722.600342 
	C2244.913574,2767.156738 2271.545654,2811.680664 2299.661377,2858.707031 
M3002.707764,2810.001465 
	C3003.430420,2786.986084 3001.134033,2763.852539 3004.168213,2740.028809 
	C3012.568604,2739.812500 3019.783691,2739.560059 3027.000977,2739.460449 
	C3033.659180,2739.368652 3040.328125,2739.653320 3046.976562,2739.382568 
	C3054.046631,2739.094727 3061.386230,2740.654297 3068.782715,2737.698730 
	C3068.782715,2730.432373 3068.782715,2724.057129 3068.782715,2716.583740 
	C3055.450439,2714.783447 3042.897461,2715.902344 3030.430420,2715.709717 
	C3017.114746,2715.503662 3003.793701,2715.663330 2990.474854,2715.663330 
	C2977.822021,2715.663330 2965.166016,2715.484375 2952.517334,2715.713135 
	C2939.379150,2715.950439 2926.132080,2714.621582 2912.587402,2716.860840 
	C2912.587402,2724.391846 2912.587402,2730.769531 2912.587402,2737.877930 
	C2934.797852,2742.073730 2956.871582,2736.630127 2979.279541,2741.413086 
	C2979.279541,2748.575195 2979.279541,2755.195557 2979.279541,2761.815674 
	C2979.280029,2797.776367 2979.225342,2833.737305 2979.337402,2869.697510 
	C2979.355225,2875.435791 2980.121094,2881.172119 2980.549805,2887.022705 
	C2988.344482,2888.071533 2994.774170,2889.298828 3002.158203,2885.383545 
	C3003.361572,2861.762695 3002.399658,2837.864014 3002.707764,2810.001465 
M1488.879395,2888.001221 
	C1494.621216,2887.346680 1500.917725,2889.732178 1506.098999,2884.825195 
	C1507.085327,2878.430176 1508.462158,2871.946533 1504.215454,2864.987793 
	C1497.656250,2864.774414 1491.117065,2864.393555 1484.577148,2864.377197 
	C1455.983276,2864.305176 1427.388550,2864.414062 1398.795532,2864.241943 
	C1395.081055,2864.219482 1391.374390,2862.946533 1387.035400,2862.135254 
	C1387.035400,2853.897461 1387.035645,2846.602539 1387.035400,2839.307373 
	C1387.034668,2803.398438 1387.104126,2767.489502 1386.952515,2731.581055 
	C1386.931274,2726.547119 1388.609009,2720.889404 1383.776001,2716.763672 
	C1377.282227,2716.763672 1370.876099,2716.763672 1363.348145,2716.763672 
	C1363.348145,2770.992188 1363.322876,2824.154297 1363.411255,2877.316406 
	C1363.416504,2880.476318 1364.332153,2883.634521 1365.012207,2888.001221 
	C1405.425293,2888.001221 1445.262207,2888.001221 1488.879395,2888.001221 
M865.693787,2868.736572 
	C865.988831,2874.607666 866.283875,2880.478516 866.618652,2887.141357 
	C874.193481,2887.141357 880.625122,2887.141357 887.880188,2887.141357 
	C888.361206,2882.769043 889.140747,2878.951416 889.146790,2875.133057 
	C889.225830,2825.347656 889.226196,2775.562256 889.118103,2725.777100 
	C889.111389,2722.678223 888.036987,2719.581787 887.305115,2715.656494 
	C880.039856,2716.017578 873.652954,2716.334961 867.896179,2716.621094 
	C866.881897,2719.226562 866.011108,2720.423584 866.007263,2721.623291 
	C865.853638,2769.413330 865.778687,2817.203369 865.693787,2868.736572 
M1285.851318,2811.578125 
	C1292.507080,2811.577881 1299.164795,2811.676270 1305.818237,2811.550537 
	C1312.914795,2811.416748 1320.007446,2811.071289 1327.694092,2810.797119 
	C1328.123657,2805.541016 1328.700439,2801.643799 1328.667725,2797.751709 
	C1328.646606,2795.229004 1327.735352,2792.713867 1326.960693,2788.906494 
	C1310.671265,2788.882812 1294.811646,2788.495361 1278.975220,2788.937744 
	C1262.625122,2789.394775 1246.059082,2786.893066 1229.642334,2790.754395 
	C1229.642334,2797.697021 1229.642334,2803.450928 1229.642334,2810.222900 
	C1247.590942,2812.879150 1264.820312,2810.997314 1285.851318,2811.578125 
M2530.822754,2788.836670 
	C2522.315674,2788.915283 2513.808594,2788.993896 2504.796631,2789.076904 
	C2502.964111,2797.495117 2501.829834,2804.371094 2505.927979,2810.883545 
	C2550.261963,2813.161621 2587.563477,2812.396729 2602.084473,2808.866699 
	C2603.780762,2802.576660 2604.569336,2796.293213 2601.445312,2790.823975 
	C2599.001465,2789.988037 2597.772705,2789.208496 2596.536865,2789.197998 
	C2575.900391,2789.020508 2555.262695,2788.939453 2530.822754,2788.836670 
M3185.984619,2811.578125 
	C3193.980957,2811.578125 3201.980469,2811.724365 3209.972412,2811.537842 
	C3218.369629,2811.342041 3226.934814,2812.533936 3234.954590,2810.441650 
	C3236.732666,2802.540771 3237.844482,2796.114502 3234.078125,2790.042725 
	C3210.081787,2787.800537 3152.947998,2788.346924 3138.003418,2791.022949 
	C3135.280273,2797.133057 3135.370850,2803.337646 3138.516846,2810.860840 
	C3152.951660,2812.313477 3167.537109,2811.239258 3185.984619,2811.578125 
z"/>
<path fill="#C6D0DF" opacity="1.000000" stroke="none" 
	d="
M4167.307617,8.572999 
	C4158.647461,8.434887 4149.986816,8.175880 4141.326660,8.175768 
	C2772.099121,8.157893 1402.871460,8.158709 33.643784,8.157535 
	C24.977777,8.157527 16.311773,8.140515 5.822884,8.065722 
	C4.000000,6.666667 3.479675,4.813008 4.146341,4.146341 
	C4.813008,3.479675 6.666667,4.000000 8.000000,4.000000 
	C12.666667,4.000000 17.333334,4.000000 22.000000,4.000000 
	C1405.333374,4.000000 2788.666748,4.000000 4170.827148,6.144277 
	C4168.872070,8.383369 4168.089844,8.478184 4167.307617,8.572999 
z"/>
<path fill="#8EA1C0" opacity="1.000000" stroke="none" 
	d="
M4167.536621,10.318157 
	C4168.089844,8.478184 4168.872070,8.383369 4170.827148,8.144278 
	C4172.000000,1396.000000 4172.000000,2784.000000 4170.000000,4172.000000 
	C4168.000977,2792.019043 4168.002441,1412.038208 4167.993164,32.057251 
	C4167.993164,25.392605 4167.844727,18.727961 4167.536621,10.318157 
z"/>
<path fill="#FDFDFE" opacity="1.000000" stroke="none" 
	d="
M2450.593994,2065.452148 
	C2434.499756,2048.455322 2419.264160,2032.587646 2404.330322,2016.440918 
	C2399.425293,2011.137329 2394.199707,2008.811279 2386.784180,2009.439331 
	C2375.520264,2010.393433 2364.158691,2010.440186 2352.838623,2010.444580 
	C2206.199951,2010.501221 2059.561279,2010.514526 1912.922852,2010.391846 
	C1905.119873,2010.385254 1896.951050,2012.262695 1888.857666,2007.693970 
	C1888.857666,1980.643066 1888.857666,1953.480591 1888.857666,1925.054810 
	C1892.661621,1924.367798 1896.330078,1923.352295 1900.047607,1923.118164 
	C1905.359253,1922.783569 1910.706909,1923.015259 1916.039185,1923.015137 
	C2062.677734,1923.013306 2209.316406,1923.019287 2355.955078,1923.006958 
	C2391.362549,1923.004028 2426.565430,1920.822876 2461.026123,1911.973877 
	C2470.683350,1909.493896 2480.311523,1906.669922 2489.636475,1903.161865 
	C2549.339111,1880.702393 2589.858887,1839.152100 2612.092773,1779.491943 
	C2621.934570,1753.084473 2627.563477,1725.711182 2630.145996,1697.785889 
	C2634.839355,1647.030029 2633.675781,1596.502319 2619.572754,1547.101685 
	C2595.617676,1463.190674 2540.466309,1411.880615 2455.590332,1392.546265 
	C2431.503174,1387.059204 2406.974609,1384.376221 2382.224121,1384.373291 
	C2177.596680,1384.349243 1972.968994,1384.349976 1768.341431,1384.373657 
	C1764.368530,1384.374146 1760.395630,1384.745483 1755.398315,1384.994995 
	C1754.595459,1388.785278 1753.369751,1392.454590 1753.130005,1396.187378 
	C1752.746216,1402.162109 1753.011353,1408.178589 1753.011353,1414.177490 
	C1753.010620,1704.122070 1753.010620,1994.066650 1753.010620,2284.011230 
	C1753.010620,2292.629150 1753.010742,2301.247070 1753.010742,2310.862793 
	C1748.573853,2311.649658 1744.866211,2312.851318 1741.150269,2312.877441 
	C1717.156128,2313.046875 1693.160034,2312.984619 1669.164917,2312.919678 
	C1666.560425,2312.912598 1663.957275,2312.402832 1660.304321,2312.014893 
	C1659.770996,2308.001953 1659.039062,2304.260254 1658.832642,2300.489990 
	C1658.578125,2295.837646 1658.755127,2291.161621 1658.755127,2286.495850 
	C1658.754272,1962.557739 1658.754517,1638.619629 1658.754517,1314.681519 
	C1658.754517,1306.754150 1658.754517,1298.826660 1658.754517,1290.357178 
	C1666.861694,1287.124146 1674.184937,1288.398682 1681.226074,1288.393677 
	C1812.534302,1288.300171 1943.842651,1288.324829 2075.150879,1288.325317 
	C2177.131348,1288.325806 2279.111816,1288.298950 2381.092285,1288.341431 
	C2422.647949,1288.358765 2463.581055,1293.484009 2503.326416,1305.714844 
	C2607.455811,1337.758911 2675.111816,1406.842773 2707.553955,1510.273560 
	C2725.707520,1568.149780 2730.457764,1627.723999 2725.864014,1688.145142 
	C2723.330322,1721.474243 2718.221191,1754.283569 2708.330566,1786.274414 
	C2678.676025,1882.192383 2617.902344,1949.194458 2523.682129,1985.187134 
	C2518.266113,1987.256104 2513.043457,1989.832397 2505.873779,1992.990845 
	C2610.499756,2099.058594 2713.771240,2203.753418 2816.551514,2307.949951 
	C2814.643799,2313.641846 2810.932617,2312.890625 2807.834717,2312.897461 
	C2770.508545,2312.981934 2733.178955,2312.697998 2695.858643,2313.174805 
	C2686.865967,2313.289795 2681.036133,2309.713867 2675.250732,2303.538330 
	C2637.883545,2263.652344 2600.268555,2223.999023 2562.745850,2184.258789 
	C2525.680420,2145.002930 2488.628174,2105.735107 2450.593994,2065.452148 
z"/>
<path fill="#FDFDFE" opacity="1.000000" stroke="none" 
	d="
M496.266510,2123.694580 
	C473.174255,2080.157715 460.098206,2034.917725 451.973358,1988.044678 
	C444.777740,1946.532471 442.438690,1904.651489 442.421631,1862.615601 
	C442.347015,1678.640869 442.381592,1494.666138 442.416473,1310.691406 
	C442.417725,1304.103027 442.838287,1297.514648 443.053406,1291.219238 
	C457.401489,1287.689453 508.779785,1286.872925 537.977173,1289.628174 
	C538.564514,1293.038452 539.567749,1296.745850 539.765198,1300.495850 
	C540.080261,1306.478638 539.864441,1312.489868 539.864502,1318.489014 
	C539.865845,1499.797485 539.929138,1681.105835 539.818970,1862.414307 
	C539.793762,1903.865112 542.698914,1945.006592 551.918152,1985.480957 
	C555.460388,2001.032471 559.565247,2016.567383 564.906433,2031.578735 
	C589.801453,2101.544678 635.895264,2152.596436 703.009216,2184.648193 
	C739.350952,2202.003906 777.625977,2213.073730 817.144592,2219.971680 
	C899.731262,2234.386719 982.838684,2235.296143 1066.212891,2229.131836 
	C1112.878418,2225.681396 1158.864258,2218.532959 1203.485474,2204.152588 
	C1218.031494,2199.464844 1232.421509,2194.042480 1246.382446,2187.831299 
	C1322.161133,2154.118164 1371.498779,2096.962158 1395.798828,2017.892700 
	C1408.415405,1976.839966 1413.767944,1934.618042 1415.585938,1891.891724 
	C1416.293945,1875.252197 1416.111572,1858.569336 1416.114624,1841.906128 
	C1416.146851,1665.930298 1416.127197,1489.954468 1416.159180,1313.978638 
	C1416.160645,1306.136963 1416.520264,1298.295410 1416.703857,1290.824829 
	C1432.824707,1287.792358 1487.261841,1287.342163 1508.403687,1289.959595 
	C1508.677490,1295.644775 1509.207886,1301.536499 1509.209106,1307.428223 
	C1509.249023,1492.069580 1509.227295,1676.710815 1509.240234,1861.352173 
	C1509.243652,1910.778076 1505.970825,1959.900635 1495.919312,2008.411499 
	C1490.095947,2036.515991 1482.182861,2064.008545 1471.255493,2090.567627 
	C1438.099487,2171.152832 1381.853027,2229.957520 1303.623535,2268.000000 
	C1259.565918,2289.425049 1213.051392,2303.227539 1165.008301,2311.822510 
	C1078.639038,2327.274170 991.604614,2330.406006 904.095398,2325.395264 
	C852.078674,2322.416992 800.592346,2316.282959 749.927246,2303.988037 
	C718.148682,2296.276855 687.260193,2285.947266 657.475952,2272.319092 
	C588.028198,2240.541504 533.492554,2192.586914 496.266510,2123.694580 
z"/>
<path fill="#FAFBFC" opacity="1.000000" stroke="none" 
	d="
M3326.530518,1804.000977 
	C3326.530518,1973.905884 3326.530518,2141.810791 3326.530518,2310.716797 
	C3322.117188,2311.573730 3318.449463,2312.874512 3314.771240,2312.904297 
	C3291.447998,2313.093506 3268.122070,2313.057861 3244.797852,2312.948486 
	C3240.885986,2312.930176 3236.977539,2312.193115 3231.645508,2311.641113 
	C3231.634766,2267.306641 3231.620117,2223.396973 3231.614746,2179.487549 
	C3231.609375,2135.503418 3231.613281,2091.519531 3231.613281,2047.535522 
	C3231.613281,2003.551514 3231.613281,1959.567505 3231.613281,1915.583496 
	C3231.613281,1870.933105 3231.613281,1826.282593 3231.613281,1781.632202 
	C3231.613281,1737.648193 3231.613281,1693.664185 3231.613281,1649.680176 
	C3231.613281,1605.696167 3231.613281,1561.712158 3231.613281,1517.728149 
	C3231.613281,1473.858765 3231.613281,1429.989258 3231.613281,1385.737061 
	C3223.580566,1382.009033 3216.189209,1383.376831 3209.116943,1383.367432 
	C3126.480225,1383.256714 3043.843750,1383.296509 2961.207031,1383.296509 
	C2920.555176,1383.296509 2879.903076,1383.324707 2839.251221,1383.267822 
	C2832.705811,1383.258667 2826.161133,1382.870117 2819.945557,1382.667603 
	C2816.179932,1368.264771 2815.619873,1311.580811 2818.764893,1290.886597 
	C2819.203613,1290.384888 2819.561768,1289.753174 2820.103760,1289.418213 
	C2820.642578,1289.084839 2821.365723,1288.904419 2822.008057,1288.903931 
	C3122.547607,1288.688965 3423.087158,1288.494873 3723.626709,1288.300903 
	C3728.211914,1288.297852 3732.797363,1288.300537 3738.305420,1288.300537 
	C3742.531982,1304.115601 3740.051514,1319.344604 3740.480713,1334.332397 
	C3740.917969,1349.606079 3740.577881,1364.902100 3740.577881,1379.282593 
	C3734.476562,1385.041382 3728.181885,1383.194336 3722.451660,1383.207031 
	C3659.141602,1383.347290 3595.831299,1383.296021 3532.520996,1383.296265 
	C3471.209961,1383.296509 3409.898926,1383.280273 3348.587891,1383.320312 
	C3342.046631,1383.324585 3335.505371,1383.656372 3330.430420,1383.795898 
	C3328.524414,1385.405762 3327.876221,1385.750610 3327.545654,1386.290039 
	C3327.221191,1386.819214 3327.094482,1387.546265 3327.093506,1388.186646 
	C3326.893311,1526.124756 3326.712402,1664.062866 3326.530518,1804.000977 
z"/>
<path fill="#EEF1F5" opacity="1.000000" stroke="none" 
	d="
M2636.000488,2488.972900 
	C3001.944336,2489.072998 3365.888428,2489.172119 3729.832275,2489.324707 
	C3731.075684,2489.325195 3732.318604,2490.100830 3733.951904,2490.644043 
	C3737.749268,2495.806885 3736.685791,2501.484619 3735.014893,2507.113037 
	C3733.667725,2507.809570 3732.560547,2508.848145 3731.408447,2508.900879 
	C3724.758789,2509.205322 3718.098145,2509.408447 3711.441406,2509.408447 
	C2629.594971,2509.427979 1547.748779,2509.428711 465.902466,2509.402832 
	C458.717163,2509.402588 451.531891,2509.028564 444.951019,2508.845703 
	C441.310822,2501.728271 441.148285,2496.165039 444.390259,2491.006592 
	C445.321411,2490.300537 445.784607,2489.793945 446.359222,2489.556396 
	C446.957428,2489.308594 447.663208,2489.231689 448.322021,2489.231445 
	C1176.881470,2489.136963 1905.441040,2489.054932 2636.000488,2488.972900 
z"/>
<path fill="#F2F4F8" opacity="1.000000" stroke="none" 
	d="
M1697.554932,2789.524170 
	C1693.837646,2792.502197 1691.190796,2794.481689 1688.439453,2796.539307 
	C1688.032349,2801.044189 1692.047363,2801.659180 1694.326294,2803.007324 
	C1719.533081,2817.920898 1718.788086,2865.604736 1686.713013,2881.262451 
	C1680.265503,2884.409668 1672.868164,2887.316162 1665.882935,2887.377930 
	C1621.995483,2887.764893 1578.100586,2887.318848 1534.208374,2887.110352 
	C1533.622437,2887.107422 1533.038818,2886.613770 1532.170044,2886.220215 
	C1531.646729,2884.543945 1530.555786,2882.671387 1530.550293,2880.795654 
	C1530.398315,2828.883057 1530.335815,2776.970459 1530.359375,2725.057617 
	C1530.360474,2722.496338 1531.271851,2719.935547 1531.880737,2716.737305 
	C1536.772705,2716.374268 1541.313477,2715.755371 1545.855469,2715.745605 
	C1581.797607,2715.667969 1617.741577,2715.541260 1653.681519,2715.836670 
	C1661.573486,2715.901367 1669.744019,2716.568359 1677.284668,2718.717529 
	C1704.587524,2726.499512 1716.550903,2752.539307 1705.224121,2778.654053 
	C1703.674805,2782.226562 1700.856323,2785.248779 1697.554932,2789.524170 
M1602.060547,2864.447754 
	C1618.016357,2864.411377 1633.972290,2864.346924 1649.928101,2864.350586 
	C1658.712036,2864.352539 1667.197998,2862.890381 1674.940918,2858.654541 
	C1684.624023,2853.357422 1689.261597,2845.183105 1688.072388,2833.959717 
	C1686.976807,2823.618896 1680.407837,2815.504639 1669.651611,2812.961670 
	C1663.909546,2811.604004 1657.794678,2811.465820 1651.842773,2811.416016 
	C1630.569336,2811.237305 1609.292847,2811.416748 1588.019287,2811.243896 
	C1584.252930,2811.213379 1580.494995,2810.145508 1576.526367,2809.524170 
	C1576.526367,2802.793945 1576.526367,2797.008789 1576.526367,2790.273926 
	C1582.545776,2789.845703 1587.734985,2789.192871 1592.928467,2789.157471 
	C1612.208008,2789.026123 1631.489746,2789.195801 1650.768799,2789.034424 
	C1656.728760,2788.984619 1662.967896,2789.193359 1668.552612,2787.523193 
	C1673.310913,2786.100342 1678.604980,2783.074463 1681.414185,2779.149170 
	C1690.740845,2766.117920 1683.829834,2746.763184 1668.741211,2741.676758 
	C1666.864136,2741.044189 1664.899048,2740.629395 1662.945435,2740.275635 
	C1653.252808,2738.520264 1568.005859,2739.236572 1553.799927,2741.426270 
	C1552.917480,2754.788818 1553.412598,2768.629639 1553.332153,2782.430176 
	C1553.254517,2795.726807 1552.939453,2809.037354 1553.419556,2822.316895 
	C1553.913208,2835.972656 1551.058350,2849.911865 1555.932251,2864.447754 
	C1570.280518,2864.447754 1584.192993,2864.447754 1602.060547,2864.447754 
z"/>
<path fill="#F1F4F7" opacity="1.000000" stroke="none" 
	d="
M3503.907227,2850.934814 
	C3514.908936,2811.618164 3525.553711,2773.861572 3536.245850,2736.118408 
	C3537.694580,2731.003906 3538.905029,2725.743652 3541.062744,2720.925537 
	C3544.987061,2712.163574 3556.843994,2711.139404 3562.260986,2719.112549 
	C3564.836670,2722.902832 3566.442871,2727.396729 3568.203125,2731.688721 
	C3581.575684,2764.295166 3594.859375,2796.938477 3608.217285,2829.551025 
	C3610.974609,2836.283691 3613.927490,2842.936279 3617.734619,2851.832275 
	C3620.931885,2846.305908 3623.512939,2842.812988 3625.118896,2838.917725 
	C3639.314941,2804.492920 3653.332764,2769.994141 3667.417480,2735.522949 
	C3669.428467,2730.601562 3671.281738,2725.596436 3673.628418,2720.837402 
	C3675.838379,2716.355469 3679.768066,2713.619385 3684.828857,2713.803711 
	C3689.856689,2713.986816 3693.589355,2716.812988 3695.425293,2721.587402 
	C3696.854980,2725.305664 3698.060303,2729.123779 3699.144531,2732.959717 
	C3712.526855,2780.305176 3725.886230,2827.656494 3739.180908,2875.026611 
	C3740.068848,2878.190430 3740.384277,2881.514648 3741.048828,2885.226318 
	C3734.114014,2890.456543 3727.049561,2886.905762 3719.286621,2887.767334 
	C3707.114258,2845.271484 3695.245850,2803.836914 3682.703125,2760.048584 
	C3679.334473,2764.949707 3676.633301,2767.728760 3675.260254,2771.055664 
	C3661.816406,2803.633301 3648.615723,2836.311279 3635.284424,2868.935791 
	C3633.276123,2873.850830 3631.361084,2878.877686 3628.685303,2883.430908 
	C3623.640869,2892.014404 3612.661377,2892.367188 3607.486816,2884.076904 
	C3604.697754,2879.608154 3602.749756,2874.571289 3600.758301,2869.654541 
	C3588.025146,2838.222168 3575.490967,2806.708740 3562.598633,2775.342285 
	C3560.710449,2770.748535 3560.214111,2764.752197 3553.081299,2762.083008 
	C3539.653320,2803.289795 3530.033203,2845.218262 3516.591553,2886.895020 
	C3509.825684,2886.895020 3503.474365,2886.895020 3496.226074,2886.895020 
	C3494.469971,2880.797363 3497.017578,2875.357178 3498.712158,2869.783936 
	C3500.453125,2864.059814 3501.957520,2858.263672 3503.907227,2850.934814 
z"/>
<path fill="#F1F4F7" opacity="1.000000" stroke="none" 
	d="
M1044.368896,2840.526855 
	C1059.260010,2803.866455 1073.567383,2768.715576 1087.945801,2733.593994 
	C1089.957031,2728.681641 1091.797852,2723.579834 1094.630981,2719.149658 
	C1099.393433,2711.702881 1110.366821,2712.256592 1114.414551,2719.938721 
	C1115.943359,2722.840332 1116.759277,2726.151367 1117.665527,2729.342285 
	C1131.669678,2778.651855 1145.651611,2827.967285 1159.562500,2877.302979 
	C1160.272705,2879.822021 1160.296021,2882.534180 1160.694580,2885.579346 
	C1154.406250,2889.793213 1147.850708,2887.654541 1140.393921,2887.398926 
	C1138.911011,2884.011719 1136.960693,2880.636475 1135.915527,2877.000977 
	C1126.535645,2844.369385 1117.345459,2811.683350 1108.017456,2779.036865 
	C1106.435669,2773.500488 1104.461792,2768.075928 1102.716064,2762.743652 
	C1095.631104,2763.751221 1095.660522,2769.446777 1094.030273,2773.387207 
	C1081.049194,2804.763428 1068.365723,2836.262695 1055.550903,2867.708008 
	C1053.543091,2872.635254 1051.350708,2877.487793 1049.210693,2882.360596 
	C1047.131226,2887.095215 1043.249634,2889.745117 1038.325806,2889.971680 
	C1032.475342,2890.240967 1028.179688,2887.112793 1025.772339,2881.780273 
	C1023.582947,2876.931152 1021.634766,2871.971680 1019.627197,2867.041992 
	C1006.569153,2834.975098 993.565796,2802.885986 980.414185,2770.857422 
	C978.989868,2767.388916 976.733154,2764.262207 973.815308,2759.137695 
	C959.473022,2802.861328 949.935547,2845.599609 936.107422,2887.313965 
	C929.150208,2887.313965 923.276184,2887.313965 915.891174,2887.313965 
	C916.094788,2883.432617 915.614563,2879.562988 916.582581,2876.098389 
	C930.197327,2827.369629 944.001038,2778.694092 957.791748,2730.014648 
	C958.697937,2726.815918 959.525635,2723.523193 960.982849,2720.566406 
	C965.160767,2712.088867 977.037659,2711.372070 982.311218,2719.438965 
	C984.827637,2723.288330 986.400391,2727.788574 988.164124,2732.090820 
	C1001.549133,2764.741211 1014.853882,2797.424561 1028.238525,2830.075195 
	C1030.995728,2836.801025 1033.982666,2843.432617 1037.521729,2851.632324 
	C1040.289551,2847.411133 1042.048706,2844.728271 1044.368896,2840.526855 
z"/>
<path fill="#EFF2F6" opacity="1.000000" stroke="none" 
	d="
M2727.944580,2715.663330 
	C2740.597168,2715.679443 2751.271729,2715.415283 2761.925781,2715.763428 
	C2797.101562,2716.912842 2818.918701,2738.739990 2820.005371,2773.806885 
	C2820.754883,2797.996338 2813.717041,2818.514160 2791.796387,2831.711426 
	C2790.140137,2832.708252 2788.407959,2833.578857 2785.828369,2834.991455 
	C2793.981934,2845.762451 2802.357422,2853.223145 2810.140869,2861.185791 
	C2817.495850,2868.710449 2825.048584,2876.048828 2831.964355,2883.675049 
	C2828.099121,2890.288330 2822.961182,2887.500000 2818.799805,2887.896729 
	C2814.185059,2888.336914 2809.495850,2887.997314 2803.378418,2887.997314 
	C2788.790527,2872.577637 2773.744873,2856.674561 2757.659180,2839.671875 
	C2733.959717,2839.671875 2709.445312,2839.671875 2685.374268,2839.671875 
	C2682.297852,2829.329346 2682.232178,2829.329102 2684.395996,2818.076172 
	C2687.749512,2817.743408 2691.512695,2817.070312 2695.279541,2817.047363 
	C2713.942871,2816.933350 2732.607666,2817.010010 2751.271729,2816.974609 
	C2755.935303,2816.965820 2760.624023,2817.071533 2765.256836,2816.643311 
	C2782.762451,2815.025879 2793.558838,2805.117920 2795.692871,2787.816895 
	C2796.580078,2780.625244 2796.539795,2773.086426 2795.444092,2765.931885 
	C2793.234863,2751.507324 2783.275391,2742.303223 2768.809570,2740.102295 
	C2765.531006,2739.603271 2762.167480,2739.497803 2758.842773,2739.492676 
	C2729.513428,2739.449219 2700.183838,2739.447266 2670.854492,2739.509033 
	C2668.250977,2739.514404 2665.648438,2740.059082 2661.955811,2740.476807 
	C2661.416260,2745.048828 2660.453369,2749.481689 2660.438721,2753.917725 
	C2660.314697,2791.245605 2660.396973,2828.574219 2660.331543,2865.902588 
	C2660.320068,2872.459229 2659.907959,2879.015137 2659.658203,2886.226562 
	C2652.559082,2888.871826 2646.171387,2888.315186 2638.792725,2886.773438 
	C2638.153076,2883.837891 2636.894775,2880.735107 2636.887451,2877.629395 
	C2636.768799,2826.969971 2636.792969,2776.310303 2636.859131,2725.650635 
	C2636.862305,2723.109863 2637.539062,2720.570068 2637.757324,2719.043457 
	C2639.165527,2717.672119 2639.566895,2717.105713 2640.113770,2716.797363 
	C2640.676758,2716.479980 2641.380615,2716.263916 2642.024902,2716.259033 
	C2670.002197,2716.042480 2697.979492,2715.854736 2727.944580,2715.663330 
z"/>
<path fill="#F0F2F7" opacity="1.000000" stroke="none" 
	d="
M1970.144043,2883.698242 
	C1955.868408,2868.575439 1942.730469,2854.487549 1928.731689,2839.476562 
	C1904.663330,2839.476562 1880.172119,2839.476562 1855.460693,2839.476562 
	C1851.631714,2832.147217 1852.280762,2825.886475 1854.466797,2818.564209 
	C1858.250977,2818.050537 1862.070923,2817.111328 1865.897583,2817.082275 
	C1886.528809,2816.926025 1907.164307,2817.200439 1927.793457,2816.938232 
	C1956.255371,2816.576172 1968.875000,2802.881592 1967.791992,2774.553711 
	C1967.067017,2755.595947 1956.719238,2739.499756 1932.722656,2739.498779 
	C1900.125244,2739.497314 1867.527832,2739.498291 1833.664673,2739.498291 
	C1832.956299,2744.337158 1831.781250,2748.693115 1831.764160,2753.053711 
	C1831.615356,2790.989990 1831.723267,2828.927490 1831.624878,2866.864014 
	C1831.608032,2873.373047 1832.692993,2880.089844 1829.585327,2887.089844 
	C1822.961182,2887.089844 1816.608032,2887.089844 1810.427368,2887.089844 
	C1807.334839,2871.567383 1806.338501,2756.951904 1808.880615,2717.976318 
	C1812.237915,2717.260010 1815.907471,2715.812256 1819.583374,2715.795898 
	C1856.853882,2715.628418 1894.129028,2715.422363 1931.394043,2715.901611 
	C1939.872925,2716.010254 1948.521606,2718.022949 1956.722656,2720.422607 
	C1965.126587,2722.881348 1971.986572,2728.420410 1977.635376,2735.216309 
	C1998.182495,2759.936035 1996.028198,2809.609619 1967.680054,2828.510010 
	C1964.526611,2830.612061 1961.436157,2832.808838 1957.260986,2835.689697 
	C1964.880737,2845.753174 1973.327637,2853.148926 1981.065430,2861.149902 
	C1988.394043,2868.728027 1995.894775,2876.139648 2003.698730,2884.006348 
	C1991.442017,2889.264648 1985.091553,2889.288818 1970.144043,2883.698242 
z"/>
<path fill="#F2F4F8" opacity="1.000000" stroke="none" 
	d="
M720.729614,2759.257080 
	C749.785400,2788.634277 777.867004,2816.988525 806.003967,2845.287354 
	C806.256165,2845.540771 807.251465,2845.055176 807.899841,2844.914551 
	C808.508911,2844.724854 809.293518,2844.703369 809.679260,2844.300049 
	C810.092468,2843.868164 810.220642,2843.090576 810.314880,2842.440674 
	C810.599487,2840.478027 811.005066,2838.504883 811.015686,2836.534180 
	C811.227417,2797.283936 811.385803,2758.033691 811.603149,2718.783447 
	C811.606384,2718.202881 812.219421,2717.625732 812.800476,2716.601562 
	C818.756653,2713.533447 825.080017,2715.144775 832.342896,2715.879883 
	C832.637878,2721.108643 833.111206,2725.651367 833.116882,2730.194336 
	C833.173218,2775.446777 833.170166,2820.699463 833.126465,2865.951904 
	C833.122009,2870.597900 833.172302,2875.311768 832.444763,2879.874023 
	C831.157166,2887.948242 822.900513,2892.314453 815.843445,2888.169922 
	C810.802368,2885.209473 806.403320,2880.919189 802.273193,2876.680908 
	C766.977112,2840.460938 731.826965,2804.099121 696.574890,2767.836182 
	C692.560547,2763.706543 688.187134,2759.926270 682.568604,2754.661133 
	C678.965698,2764.772705 680.643066,2773.304443 680.386719,2781.575928 
	C680.118896,2790.218750 680.326904,2798.876465 680.326904,2807.527588 
	C680.326904,2816.178711 680.326904,2824.830078 680.326904,2833.481201 
	C680.326904,2842.132568 680.326904,2850.783691 680.326904,2859.435059 
	C680.326904,2868.009277 680.326965,2876.583496 680.326965,2885.632568 
	C673.017822,2889.068604 666.707825,2888.284424 659.365479,2886.596924 
	C658.837585,2882.141113 657.856873,2877.661377 657.845520,2873.178955 
	C657.730530,2827.926758 657.745789,2782.674072 657.816040,2737.421631 
	C657.823242,2732.789551 657.950073,2728.062988 658.852905,2723.546875 
	C660.629761,2714.658691 669.728394,2710.968506 677.286743,2716.116455 
	C681.086365,2718.704102 684.343994,2722.152588 687.609558,2725.446777 
	C698.384277,2736.316895 709.050598,2747.294434 720.729614,2759.257080 
z"/>
<path fill="#F2F4F8" opacity="1.000000" stroke="none" 
	d="
M2048.661133,2871.577637 
	C2017.328979,2844.128174 2009.678345,2810.733887 2019.543091,2773.046875 
	C2028.137085,2740.213379 2054.936035,2718.293701 2088.659180,2716.231934 
	C2108.522217,2715.017578 2128.586670,2714.953369 2148.442139,2716.223877 
	C2187.275635,2718.708984 2216.355225,2747.578125 2220.643799,2786.374268 
	C2222.722900,2805.177246 2221.398682,2823.563232 2212.986084,2840.896973 
	C2198.631104,2870.474609 2174.900391,2886.196289 2142.159424,2887.816650 
	C2128.896973,2888.472656 2115.569336,2887.686279 2102.283691,2888.025879 
	C2083.043457,2888.517822 2065.445801,2883.922119 2048.661133,2871.577637 
M2051.810547,2841.586182 
	C2064.551025,2858.227783 2081.641602,2865.063477 2102.287598,2864.467773 
	C2115.571533,2864.084229 2128.893311,2864.748779 2142.162109,2864.149170 
	C2165.576904,2863.091064 2182.456055,2851.418457 2191.919434,2830.172363 
	C2195.361084,2822.445557 2197.370850,2813.681396 2198.114014,2805.221436 
	C2201.351807,2768.375732 2176.295166,2740.410889 2139.592041,2739.461182 
	C2124.978271,2739.083008 2110.345947,2739.422607 2095.722168,2739.415039 
	C2064.606445,2739.398926 2041.666992,2764.597900 2039.642822,2793.373291 
	C2038.492432,2809.728027 2040.793091,2825.177734 2051.810547,2841.586182 
z"/>
<path fill="#F5F7F9" opacity="1.000000" stroke="none" 
	d="
M606.882446,2787.924805 
	C606.882568,2763.323975 606.882568,2740.705811 606.882568,2718.275635 
	C614.235046,2714.522217 620.616394,2715.416748 628.104431,2717.007080 
	C628.522461,2720.864746 629.276672,2724.661133 629.290466,2728.459961 
	C629.389343,2755.781006 629.427917,2783.103271 629.274658,2810.424072 
	C629.233643,2817.739746 628.995544,2825.129639 627.930359,2832.350342 
	C624.074036,2858.490479 609.790649,2876.082520 584.333130,2884.229004 
	C568.906189,2889.165283 552.936951,2890.524414 536.964172,2890.364258 
	C522.355286,2890.217773 507.754425,2888.973633 493.528290,2884.668701 
	C466.151733,2876.385010 451.807037,2857.593750 447.993835,2829.889893 
	C447.903107,2829.230469 447.823975,2828.562500 447.823822,2827.898682 
	C447.815704,2791.294189 447.816650,2754.689697 447.816650,2717.706299 
	C455.180756,2714.689941 462.126770,2715.330322 470.080231,2717.340088 
	C470.453918,2722.778809 471.095947,2727.981689 471.120361,2733.187012 
	C471.232880,2757.176025 471.119019,2781.166260 471.210419,2805.155273 
	C471.235779,2811.811523 471.331848,2818.502686 472.009827,2825.114746 
	C473.984344,2844.370850 484.367493,2857.398193 502.882721,2862.688965 
	C526.427673,2869.416504 550.418335,2869.348145 574.002930,2862.912109 
	C591.603943,2858.109131 602.907898,2846.384766 604.937500,2827.736328 
	C606.301453,2815.204590 606.282532,2802.521973 606.882446,2787.924805 
z"/>
<path fill="#F0F2F7" opacity="1.000000" stroke="none" 
	d="
M3325.522949,2777.035645 
	C3335.936279,2759.832764 3345.416016,2743.763916 3355.175537,2727.866943 
	C3367.319580,2708.084961 3374.761475,2708.313232 3387.218750,2728.867676 
	C3402.757568,2754.505859 3418.104248,2780.260254 3433.551025,2805.954346 
	C3447.282471,2828.794678 3461.062256,2851.606201 3474.755859,2874.469482 
	C3476.749756,2877.798340 3478.382568,2881.343506 3480.854248,2886.074707 
	C3471.161865,2889.108643 3462.958740,2888.128662 3454.287842,2887.093750 
	C3445.141846,2872.229492 3436.123535,2857.572754 3426.525391,2841.973633 
	C3397.831543,2841.862549 3369.356201,2841.752441 3339.651611,2841.637451 
	C3339.669189,2832.977051 3344.231445,2828.263428 3348.515625,2822.451416 
	C3358.632324,2820.274170 3369.285400,2821.761963 3379.815674,2821.312744 
	C3390.147461,2820.872559 3400.644043,2822.369385 3411.230225,2820.082031 
	C3405.344971,2804.687012 3384.319336,2768.470459 3370.100830,2749.100830 
	C3366.985107,2753.314453 3363.745605,2757.007568 3361.267090,2761.155029 
	C3339.734863,2797.182373 3318.345459,2833.295166 3296.896973,2869.372559 
	C3293.498047,2875.090088 3290.017334,2880.759033 3286.168945,2887.120361 
	C3278.421875,2887.120361 3270.584473,2887.120361 3261.026123,2887.120361 
	C3263.707031,2881.587891 3265.589111,2876.843018 3268.170410,2872.515137 
	C3286.938965,2841.044678 3305.848145,2809.658447 3325.522949,2777.035645 
z"/>
<path fill="#EEF1F5" opacity="1.000000" stroke="none" 
	d="
M2575.595215,2715.649414 
	C2587.367432,2716.072510 2597.311523,2714.667480 2607.503906,2716.694336 
	C2609.415039,2724.451660 2609.861572,2731.481445 2606.248047,2739.456055 
	C2585.785156,2739.456055 2565.189941,2739.423828 2544.594727,2739.465576 
	C2524.059814,2739.507080 2503.512695,2739.249512 2483.324707,2739.692383 
	C2480.442627,2758.573730 2480.538086,2846.533936 2483.304688,2863.150146 
	C2496.928955,2865.522217 2510.896240,2864.020996 2524.769775,2864.279541 
	C2538.092773,2864.528076 2551.424072,2864.333496 2564.751709,2864.333496 
	C2578.690186,2864.333496 2592.628662,2864.333496 2606.459473,2864.333496 
	C2610.222656,2872.260742 2609.630615,2879.253906 2607.827148,2886.198242 
	C2590.004395,2888.699707 2476.084229,2888.653809 2459.832031,2886.195557 
	C2459.243164,2884.469727 2458.062012,2882.617920 2458.058594,2880.763916 
	C2457.959229,2828.128418 2457.959717,2775.492920 2458.057129,2722.857422 
	C2458.060547,2720.998779 2459.216797,2719.142090 2459.772949,2717.472900 
	C2461.289551,2716.867188 2462.501709,2715.963379 2463.717773,2715.958008 
	C2500.365234,2715.800537 2537.013184,2715.731934 2575.595215,2715.649414 
z"/>
<path fill="#F0F2F7" opacity="1.000000" stroke="none" 
	d="
M1287.905029,2864.356934 
	C1304.396362,2864.478760 1318.908813,2864.600586 1334.736694,2864.733398 
	C1335.175171,2872.448730 1335.535645,2878.793945 1335.936035,2885.840576 
	C1318.549194,2889.946777 1301.961792,2887.449951 1285.564941,2887.894531 
	C1268.943726,2888.344727 1252.299927,2888.109863 1235.667725,2887.961182 
	C1219.199463,2887.814209 1202.684204,2888.632568 1185.098389,2887.304199 
	C1182.869019,2858.366943 1184.299194,2830.584473 1184.041748,2802.857666 
	C1183.782593,2774.947998 1183.984741,2747.033936 1183.984741,2718.259521 
	C1187.599854,2717.313721 1190.617188,2715.844727 1193.639038,2715.835205 
	C1238.215454,2715.697266 1282.792480,2715.737793 1327.369263,2715.815674 
	C1329.267456,2715.819092 1331.164185,2716.592041 1334.011108,2717.213623 
	C1336.774170,2723.313965 1335.813965,2729.732910 1334.552124,2737.466553 
	C1330.350098,2738.101807 1325.982178,2739.311035 1321.607788,2739.335205 
	C1291.003418,2739.504883 1260.397461,2739.429443 1229.792114,2739.432129 
	C1223.256958,2739.432861 1216.721680,2739.432129 1209.233276,2739.432129 
	C1206.092407,2761.154297 1208.131592,2781.638672 1207.752319,2802.008301 
	C1207.382568,2821.870117 1207.671997,2841.743896 1207.671997,2862.846436 
	C1221.770874,2865.569824 1234.963501,2864.020996 1248.003418,2864.298584 
	C1260.639038,2864.567627 1273.284912,2864.356934 1287.905029,2864.356934 
z"/>
<path fill="#F0F2F7" opacity="1.000000" stroke="none" 
	d="
M3091.646973,2736.491699 
	C3091.647461,2729.286133 3091.647461,2724.029053 3091.647461,2717.890381 
	C3095.582031,2717.040771 3098.637451,2715.814453 3101.696533,2715.805664 
	C3145.598877,2715.681152 3189.501221,2715.700928 3233.403809,2715.770508 
	C3235.944824,2715.774658 3238.484863,2716.505127 3242.054932,2717.056396 
	C3242.054932,2723.907715 3242.054932,2730.242676 3242.054932,2737.683350 
	C3237.486084,2738.275391 3233.047852,2739.327881 3228.604736,2739.349365 
	C3198.006592,2739.497314 3167.407227,2739.395020 3136.808350,2739.460449 
	C3130.307861,2739.474365 3123.808105,2739.848145 3117.623291,2740.046143 
	C3114.666748,2756.883057 3114.291260,2842.031006 3117.030029,2863.233643 
	C3121.204590,2863.590820 3125.652344,2864.287109 3130.102295,2864.301025 
	C3161.365967,2864.398682 3192.630371,2864.304932 3223.894043,2864.403076 
	C3229.736572,2864.421387 3235.577148,2865.028564 3242.364746,2865.418213 
	C3242.364746,2872.846680 3242.364746,2879.162109 3242.364746,2886.484619 
	C3225.551025,2889.487793 3208.997559,2887.561035 3192.577637,2887.918213 
	C3176.620605,2888.265625 3160.650146,2887.993896 3144.685547,2887.993896 
	C3128.106934,2887.993896 3111.528564,2887.993896 3096.075684,2887.993896 
	C3090.011963,2882.896729 3091.748047,2877.200439 3091.731934,2872.143555 
	C3091.589355,2827.576172 3091.647705,2783.007812 3091.646973,2736.491699 
z"/>
<path fill="#F1F4F7" opacity="1.000000" stroke="none" 
	d="
M2298.916016,2857.457764 
	C2271.545654,2811.680664 2244.913574,2767.156738 2218.335938,2722.600342 
	C2217.704834,2721.541992 2217.683350,2720.119873 2217.151855,2717.943604 
	C2220.568359,2714.477783 2225.322510,2715.971191 2229.552002,2715.739990 
	C2233.505615,2715.523926 2237.480225,2715.693848 2242.333008,2715.693848 
	C2270.804199,2761.625488 2297.043701,2808.564941 2325.585938,2855.095947 
	C2336.122314,2845.283691 2340.794434,2832.646240 2347.788818,2821.636475 
	C2355.275146,2809.852295 2362.069092,2797.628906 2369.176025,2785.603516 
	C2375.944580,2774.150879 2382.707520,2762.694824 2389.508545,2751.261719 
	C2396.289307,2739.862549 2403.114258,2728.489502 2410.246338,2716.558594 
	C2418.249023,2716.558594 2426.069092,2716.558594 2435.300293,2716.558594 
	C2433.496094,2720.850586 2432.440918,2724.528076 2430.542725,2727.701172 
	C2401.172363,2776.792236 2371.700195,2825.822021 2342.223145,2874.849121 
	C2340.169189,2878.265381 2338.197021,2881.802734 2335.656738,2884.840332 
	C2329.746826,2891.906982 2320.812744,2891.838623 2315.388184,2884.150146 
	C2309.650879,2876.018311 2304.863770,2867.216309 2298.916016,2857.457764 
z"/>
<path fill="#EFF2F6" opacity="1.000000" stroke="none" 
	d="
M3002.707764,2811.999512 
	C3002.399658,2837.864014 3003.361572,2861.762695 3002.158203,2885.383545 
	C2994.774170,2889.298828 2988.344482,2888.071533 2980.549805,2887.022705 
	C2980.121094,2881.172119 2979.355225,2875.435791 2979.337402,2869.697510 
	C2979.225342,2833.737305 2979.280029,2797.776367 2979.279541,2761.815674 
	C2979.279541,2755.195557 2979.279541,2748.575195 2979.279541,2741.413086 
	C2956.871582,2736.630127 2934.797852,2742.073730 2912.587402,2737.877930 
	C2912.587402,2730.769531 2912.587402,2724.391846 2912.587402,2716.860840 
	C2926.132080,2714.621582 2939.379150,2715.950439 2952.517334,2715.713135 
	C2965.166016,2715.484375 2977.822021,2715.663330 2990.474854,2715.663330 
	C3003.793701,2715.663330 3017.114746,2715.503662 3030.430420,2715.709717 
	C3042.897461,2715.902344 3055.450439,2714.783447 3068.782715,2716.583740 
	C3068.782715,2724.057129 3068.782715,2730.432373 3068.782715,2737.698730 
	C3061.386230,2740.654297 3054.046631,2739.094727 3046.976562,2739.382568 
	C3040.328125,2739.653320 3033.659180,2739.368652 3027.000977,2739.460449 
	C3019.783691,2739.560059 3012.568604,2739.812500 3004.168213,2740.028809 
	C3001.134033,2763.852539 3003.430420,2786.986084 3002.707764,2811.999512 
z"/>
<path fill="#EFF2F6" opacity="1.000000" stroke="none" 
	d="
M1486.989258,2888.001221 
	C1445.262207,2888.001221 1405.425293,2888.001221 1365.012207,2888.001221 
	C1364.332153,2883.634521 1363.416504,2880.476318 1363.411255,2877.316406 
	C1363.322876,2824.154297 1363.348145,2770.992188 1363.348145,2716.763672 
	C1370.876099,2716.763672 1377.282227,2716.763672 1383.776001,2716.763672 
	C1388.609009,2720.889404 1386.931274,2726.547119 1386.952515,2731.581055 
	C1387.104126,2767.489502 1387.034668,2803.398438 1387.035400,2839.307373 
	C1387.035645,2846.602539 1387.035400,2853.897461 1387.035400,2862.135254 
	C1391.374390,2862.946533 1395.081055,2864.219482 1398.795532,2864.241943 
	C1427.388550,2864.414062 1455.983276,2864.305176 1484.577148,2864.377197 
	C1491.117065,2864.393555 1497.656250,2864.774414 1504.215454,2864.987793 
	C1508.462158,2871.946533 1507.085327,2878.430176 1506.098999,2884.825195 
	C1500.917725,2889.732178 1494.621216,2887.346680 1486.989258,2888.001221 
z"/>
<path fill="#EEF1F5" opacity="1.000000" stroke="none" 
	d="
M865.693665,2866.865234 
	C865.778687,2817.203369 865.853638,2769.413330 866.007263,2721.623291 
	C866.011108,2720.423584 866.881897,2719.226562 867.896179,2716.621094 
	C873.652954,2716.334961 880.039856,2716.017578 887.305115,2715.656494 
	C888.036987,2719.581787 889.111389,2722.678223 889.118103,2725.777100 
	C889.226196,2775.562256 889.225830,2825.347656 889.146790,2875.133057 
	C889.140747,2878.951416 888.361206,2882.769043 887.880188,2887.141357 
	C880.625122,2887.141357 874.193481,2887.141357 866.618652,2887.141357 
	C866.283875,2880.478516 865.988831,2874.607666 865.693665,2866.865234 
z"/>
<path fill="#E4E9F0" opacity="1.000000" stroke="none" 
	d="
M1283.893433,2811.578125 
	C1264.820312,2810.997314 1247.590942,2812.879150 1229.642334,2810.222900 
	C1229.642334,2803.450928 1229.642334,2797.697021 1229.642334,2790.754395 
	C1246.059082,2786.893066 1262.625122,2789.394775 1278.975220,2788.937744 
	C1294.811646,2788.495361 1310.671265,2788.882812 1326.960693,2788.906494 
	C1327.735352,2792.713867 1328.646606,2795.229004 1328.667725,2797.751709 
	C1328.700439,2801.643799 1328.123657,2805.541016 1327.694092,2810.797119 
	C1320.007446,2811.071289 1312.914795,2811.416748 1305.818237,2811.550537 
	C1299.164795,2811.676270 1292.507080,2811.577881 1283.893433,2811.578125 
z"/>
<path fill="#E4E9F0" opacity="1.000000" stroke="none" 
	d="
M2532.724121,2788.836670 
	C2555.262695,2788.939453 2575.900391,2789.020508 2596.536865,2789.197998 
	C2597.772705,2789.208496 2599.001465,2789.988037 2601.445312,2790.823975 
	C2604.569336,2796.293213 2603.780762,2802.576660 2602.084473,2808.866699 
	C2587.563477,2812.396729 2550.261963,2813.161621 2505.927979,2810.883545 
	C2501.829834,2804.371094 2502.964111,2797.495117 2504.796631,2789.076904 
	C2513.808594,2788.993896 2522.315674,2788.915283 2532.724121,2788.836670 
z"/>
<path fill="#E4E9F0" opacity="1.000000" stroke="none" 
	d="
M3184.020508,2811.578125 
	C3167.537109,2811.239258 3152.951660,2812.313477 3138.516846,2810.860840 
	C3135.370850,2803.337646 3135.280273,2797.133057 3138.003418,2791.022949 
	C3152.947998,2788.346924 3210.081787,2787.800537 3234.078125,2790.042725 
	C3237.844482,2796.114502 3236.732666,2802.540771 3234.954590,2810.441650 
	C3226.934814,2812.533936 3218.369629,2811.342041 3209.972412,2811.537842 
	C3201.980469,2811.724365 3193.980957,2811.578125 3184.020508,2811.578125 
z"/>
<path fill="#234884" opacity="1.000000" stroke="none" 
	d="
M1600.083008,2864.447754 
	C1584.192993,2864.447754 1570.280518,2864.447754 1555.932251,2864.447754 
	C1551.058350,2849.911865 1553.913208,2835.972656 1553.419556,2822.316895 
	C1552.939453,2809.037354 1553.254517,2795.726807 1553.332153,2782.430176 
	C1553.412598,2768.629639 1552.917480,2754.788818 1553.799927,2741.426270 
	C1568.005859,2739.236572 1653.252808,2738.520264 1662.945435,2740.275635 
	C1664.899048,2740.629395 1666.864136,2741.044189 1668.741211,2741.676758 
	C1683.829834,2746.763184 1690.740845,2766.117920 1681.414185,2779.149170 
	C1678.604980,2783.074463 1673.310913,2786.100342 1668.552612,2787.523193 
	C1662.967896,2789.193359 1656.728760,2788.984619 1650.768799,2789.034424 
	C1631.489746,2789.195801 1612.208008,2789.026123 1592.928467,2789.157471 
	C1587.734985,2789.192871 1582.545776,2789.845703 1576.526367,2790.273926 
	C1576.526367,2797.008789 1576.526367,2802.793945 1576.526367,2809.524170 
	C1580.494995,2810.145508 1584.252930,2811.213379 1588.019287,2811.243896 
	C1609.292847,2811.416748 1630.569336,2811.237305 1651.842773,2811.416016 
	C1657.794678,2811.465820 1663.909546,2811.604004 1669.651611,2812.961670 
	C1680.407837,2815.504639 1686.976807,2823.618896 1688.072388,2833.959717 
	C1689.261597,2845.183105 1684.624023,2853.357422 1674.940918,2858.654541 
	C1667.197998,2862.890381 1658.712036,2864.352539 1649.928101,2864.350586 
	C1633.972290,2864.346924 1618.016357,2864.411377 1600.083008,2864.447754 
z"/>
<path fill="#204683" opacity="1.000000" stroke="none" 
	d="
M2050.899414,2840.359375 
	C2040.793091,2825.177734 2038.492432,2809.728027 2039.642822,2793.373291 
	C2041.666992,2764.597900 2064.606445,2739.398926 2095.722168,2739.415039 
	C2110.345947,2739.422607 2124.978271,2739.083008 2139.592041,2739.461182 
	C2176.295166,2740.410889 2201.351807,2768.375732 2198.114014,2805.221436 
	C2197.370850,2813.681396 2195.361084,2822.445557 2191.919434,2830.172363 
	C2182.456055,2851.418457 2165.576904,2863.091064 2142.162109,2864.149170 
	C2128.893311,2864.748779 2115.571533,2864.084229 2102.287598,2864.467773 
	C2081.641602,2865.063477 2064.551025,2858.227783 2050.899414,2840.359375 
z"/>
</svg>